<?xml version="1.0" encoding="iso-8859-1"?>
<!-- Generator: Adobe Illustrator 17.0.0, SVG Export Plug-In . SVG Version: 6.00 Build 0)  -->
<!DOCTYPE svg PUBLIC "-//W3C//DTD SVG 1.1//EN" "http://www.w3.org/Graphics/SVG/1.1/DTD/svg11.dtd">
<svg version="1.1" id="Simada" xmlns="http://www.w3.org/2000/svg" xmlns:xlink="http://www.w3.org/1999/xlink" x="0px" y="0px"
	 width="1833.07px" height="441.906px" viewBox="0 0 1833.07 441.906" style="enable-background:new 0 0 1833.07 441.906;"
	 xml:space="preserve">
<path id="Circle" style="fill:#FAE6B3;" d="M71.662,409.621l0.028,0c43.346-16.076,96.203-25.527,153.262-25.527
	c60.403,0,116.095,10.59,160.78,28.421l0.036,0c45.951-42.097,74.764-102.599,74.764-169.83
	c0-127.172-103.093-230.266-230.266-230.266S0,115.513,0,242.685C0,308.391,27.52,367.668,71.662,409.621z"/>
<path id="Tree" d="M438.124,435.286c0,0-1.385-1.011-3.981-2.908c-1.308-0.942-2.922-2.104-4.819-3.47
	c-1.926-1.321-4.203-2.735-6.744-4.351c-1.275-0.798-2.604-1.674-4.029-2.53c-1.443-0.824-2.953-1.687-4.527-2.586
	c-1.581-0.894-3.226-1.826-4.933-2.791c-1.718-0.947-3.551-1.808-5.418-2.764c-1.876-0.942-3.812-1.913-5.805-2.914
	c-2.003-0.982-4.108-1.878-6.248-2.861c-2.145-0.969-4.347-1.969-6.62-2.943c-2.296-0.911-4.645-1.843-7.045-2.795
	c-4.776-1.996-9.886-3.652-15.142-5.505c-2.619-0.962-5.335-1.746-8.086-2.58c-2.753-0.829-5.549-1.671-8.382-2.524
	c-2.86-0.752-5.759-1.514-8.694-2.286c-1.47-0.381-2.949-0.765-4.436-1.15c-1.492-0.362-3.002-0.68-4.516-1.026
	c-3.032-0.674-6.097-1.356-9.191-2.044c-3.104-0.636-6.257-1.171-9.427-1.768c-6.333-1.271-12.835-2.108-19.405-3.079
	c-3.285-0.488-6.61-0.781-9.942-1.184c-2.186-0.235-4.379-0.502-6.581-0.72c-3.627-9.471,1.733-26.452,5.176-31.288
	c5.737-8.058,11.754-13.449,22.4-11.929c2.95,0.421,6.178-1.506,9.333-2.031c4.824-0.803,9.695-1.324,14.652-1.979
	c0.564-1.497,1.708-4.536,2.332-6.194c-1.278-3.557-2.297-6.396-3.317-9.234c0.618-0.373,1.236-0.745,1.854-1.118
	c9.297,6.811,22.1-2.13,30.398,7.266c1.41-1.135,2.644-2.128,3.96-3.187c1.906,3.693,13.478,6.825,17.051,4.863
	c5.028-2.761,9.9-5.811,14.946-8.537c4.814-2.601,5.249-13.353,2.009-17.44c-5.24-6.609-13.73-4.936-19.389-8.984
	c-6.737-4.82-14.158-3.199-21.189-4.718c-8.706-1.881-17.504-3.34-26.847-5.091c-0.53,0.604-1.825,2.08-3.119,3.555
	c-2.734-1.384-5.171-1.644-7.081-0.761c-2.824,1.305-5.467,3.197-7.84,5.242c-4.13,3.557-7.725,7.789-12.086,11.005
	c-2.245,1.656-5.656,1.731-8.54,2.52c0.272-2.217,0.56-4.433,0.812-6.653c0.321-2.821,1.92-7.015,0.67-8.207
	c-3.621-3.453-8.246-7.708-12.739-8.035c-12.256-0.89-24.646,0.08-36.984,0.288c-0.181,0.003-0.367-0.323-0.622-0.562
	c2.19-18.496,15.492-26.642,32.04-32.521c8.645,5.816,20.638,4.204,26.33-4.039c-2.658-4.427-5.337-8.889-8.016-13.35
	c0.566-0.624,1.133-1.248,1.699-1.872c4.408,2.951,8.816,5.902,12.99,8.697c3.469,0.365,7.287,0.381,10.896,1.255
	c3.687,0.893,7.145,3.668,10.749,3.757c5.822,0.144,11.682-1.238,16.697-1.87c-0.408-2.642-0.302-5.968-1.488-8.742
	c-2.02-4.722-1.464-13.417-11.139-8.833c-0.655,0.31-2.173-0.094-2.648-0.684c-4.685-5.817-11.732-4.039-17.664-5.211
	c-9.389-1.855-15.143,1.129-17.642,7.382c-6.645-1.268-11.42-7.902-9.669-13.704c1.847-6.118,7.96-0.838,10.998-3.937
	c4.293,4.355,8.857,1.921,13.665,0.995c6.01-1.156,12.23-1.223,20.946-1.988c-3.228-2.61-4.578-4.348-6.331-5
	c-5.757-2.138-11.66-3.882-18.952-6.247c-2.53,1.428-6.768,3.819-10.082,5.69c-3.33-1.486-7.363-2.012-8.566-4.139
	c-1.565-2.766-0.882-6.804-1.167-10.295c0.678-0.378,1.355-0.755,2.033-1.133c7.842,11.03,16.491,5.978,25.024,2.697
	c-0.896-11.864-10.537-14.04-18.687-17.862c-3.081-1.445-6.056-3.113-7.706-3.968c-6.753-0.28-12.536-0.501-18.318-0.776
	c-0.943-0.045-2.246-0.812-2.755-0.423c-5.947,4.542-11.774,9.241-16.487,12.987c0.865,3.878,1.203,7.337,2.483,10.401
	c0.769,1.84,3.131,4.423,4.562,4.294c3.267-0.296,6.32-2.496,9.611-3.114c4.62-0.867,9.378-0.999,14.077-1.446
	c0.212,0.837,0.425,1.674,0.637,2.511c-2.103,1.536-4.604,4.725-6.243,4.331c-8.878-2.133-8.859,5.566-12.195,10.271
	c-1.631-1.501-3.22-2.964-4.752-4.374c-5.509,3.54-13.747,3.704-14.712,13.583c6.092-3.211,11.327-3.703,13.674,0.952
	c7.34-0.072,13.386-0.077,19.429-0.205c7.089-0.15,7.692,0.632,5.009,7.444c-6.652-5.679-11.458-1.274-16.795,2.642
	c-3.723,2.732-9.742,7.198-12.135,5.94c-6.398-3.362-13.353,4.544-18.857-1.938c-0.148-0.174-2.621,1.707-4.066,2.53
	c-1.115,0.635-2.386,1.689-3.469,1.561c-3.801-0.451-6.924,0.774-10.554,1.798c-11.529,3.251-21.192,9.018-29.915,16.19
	c0.801,2.556,1.359,6.608,2.199,6.667c7.582,0.536,14.102,8.239,22.305,3.639c4.076-2.286,8.466,1.201,13.393-2.514
	c3.424-2.581,11.512,1.025,17.517,1.867c-0.167,1.345-0.118,1.88-0.312,2.305c-0.312,0.681-0.752,1.313-1.194,1.924
	c-5.467,7.564-11.113,14.957-5.342,25.123c0.667,1.176-1.78,4.119-2.783,6.243c-0.636-0.361-1.272-0.722-1.908-1.083
	c-0.338-7.507-6.403-16.141-11.729-16.279c-11.406-0.295-22.83-0.76-34.221-0.382c-5.82,0.193-12.123,1.001-17.165,3.574
	c-2.848,1.454-4.198,6.956-4.802,10.855c-0.139,0.898,0.519,8.504,6.744,6.167c4.297,7.52,13.455,3.259,19.062,7.815
	c1.113,0.905,3.191,0.54,4.765,0.976c5.624,1.555,10.755,0.997,15.322-2.993c0.604-0.528,1.884-0.491,2.818-0.395
	c4.061,0.418,8.112,1.39,12.162,1.367c13.675-0.076,26.587,1.561,36.206,13.177c-5.849,10.065-6.105,18.872,5.743,24.575
	c-1.292,1.081-1.635,1.62-1.998,1.633c-4.527,0.166-9.057,0.28-13.587,0.361c-12.242,0.221-13.113,0.977-14.416,12.666
	c-1.32,11.841-5.099,15.902-16.459,19.144c-3.465,0.989-6.897,2.092-10.32,3.226c-5.309,0.297-10.599,0.595-15.838,1.156
	c-3.369,0.329-6.731,0.584-10.064,0.973c-3.329,0.424-6.641,0.845-9.933,1.264c-3.296,0.381-6.549,0.945-9.785,1.454
	c-3.232,0.531-6.451,0.984-9.617,1.611c-6.328,1.272-12.571,2.372-18.603,3.878c-3.019,0.731-6.02,1.37-8.953,2.155
	c-2.93,0.792-5.824,1.575-8.679,2.347c-2.859,0.746-5.641,1.638-8.386,2.491c-2.742,0.862-5.451,1.673-8.094,2.539
	c-2.624,0.93-5.204,1.843-7.736,2.741c-1.265,0.448-2.517,0.893-3.758,1.333c-1.238,0.448-2.445,0.948-3.646,1.423
	c-4.794,1.926-9.404,3.699-13.673,5.698c-2.142,0.97-4.228,1.916-6.257,2.835c-1.996,0.992-3.935,1.956-5.813,2.89
	c-1.873,0.937-3.686,1.844-5.436,2.719c-1.719,0.943-3.372,1.858-4.948,2.756c-1.578,0.891-3.091,1.746-4.537,2.563
	c-1.448,0.804-2.792,1.708-4.084,2.49c-2.572,1.602-4.878,3.019-6.826,4.302c-1.882,1.324-3.483,2.45-4.781,3.363
	c-2.586,1.843-3.965,2.826-3.965,2.826l-2.315,1.65l2.712,4.483l2.537-1.283c0,0,1.511-0.764,4.345-2.197
	c1.412-0.725,3.153-1.619,5.2-2.67c2.043-0.949,4.391-2.04,7.021-3.262c1.321-0.598,2.656-1.288,4.152-1.899
	c1.486-0.62,3.041-1.269,4.662-1.946c1.622-0.67,3.299-1.386,5.032-2.136c1.769-0.677,3.601-1.378,5.494-2.102
	c1.891-0.719,3.843-1.462,5.852-2.226c2.038-0.691,4.134-1.403,6.286-2.132c2.161-0.7,4.317-1.563,6.615-2.219
	c2.277-0.7,4.607-1.417,6.987-2.149c1.193-0.355,2.38-0.761,3.603-1.104c1.225-0.337,2.462-0.677,3.711-1.021
	c2.495-0.687,5.036-1.387,7.622-2.099c2.605-0.64,5.255-1.291,7.945-1.952c2.689-0.659,5.41-1.354,8.211-1.902
	c2.786-0.599,5.609-1.206,8.468-1.82c2.857-0.614,5.786-1.082,8.724-1.639c5.867-1.161,11.927-2.026,18.064-3
	c12.317-1.703,25.076-3.249,38.11-4.118c3.255-0.248,6.52-0.52,9.808-0.628c3.283-0.166,6.576-0.332,9.876-0.499
	c3.301-0.135,6.613-0.16,9.926-0.247l4.972-0.109l1.104-0.023l1.266,0.005l2.533,0.007c3.377,0.01,6.755,0.02,10.129,0.03
	c1.707-0.017,3.33,0.058,4.97,0.113l4.911,0.168c3.278,0.149,6.522,0.117,9.814,0.37c3.281,0.195,6.553,0.39,9.811,0.584
	c3.264,0.142,6.491,0.54,9.717,0.781c3.22,0.301,6.438,0.493,9.612,0.878c3.177,0.374,6.334,0.745,9.469,1.114
	c3.146,0.308,6.238,0.802,9.314,1.242c12.331,1.65,24.112,4.007,35.274,6.327c2.771,0.659,5.503,1.309,8.195,1.949
	c2.69,0.654,5.359,1.24,7.932,1.979c5.168,1.413,10.196,2.71,14.924,4.24c2.38,0.73,4.71,1.444,6.988,2.142
	c2.25,0.775,4.448,1.532,6.591,2.27c2.141,0.748,4.256,1.417,6.265,2.176c2.002,0.778,3.947,1.534,5.832,2.266
	c1.879,0.747,3.732,1.409,5.465,2.161c1.735,0.75,3.408,1.472,5.015,2.167c1.614,0.69,3.162,1.351,4.642,1.984
	c1.464,0.664,2.827,1.356,4.142,1.981c2.626,1.266,4.97,2.396,7.01,3.38c1.997,1.066,3.696,1.973,5.073,2.708
	c2.775,1.458,4.255,2.236,4.255,2.236l2.522,1.325l2.897-4.38L438.124,435.286z"/>
<circle id="Sun" style="fill:#D02129;" cx="111.381" cy="74.415" r="74.415"/>
<g>
	<path d="M649.519,263.421c-16.535-4.8-29.815-11.04-39.84-18.72l17.6-39.04c9.6,7.04,21.01,12.695,34.24,16.96
		c13.225,4.27,26.45,6.4,39.68,6.4c14.72,0,25.6-2.186,32.64-6.561c7.04-4.37,10.56-10.185,10.56-17.439
		c0-5.33-2.08-9.761-6.24-13.28c-4.16-3.521-9.495-6.345-16-8.48c-6.51-2.13-15.31-4.479-26.4-7.04
		c-17.07-4.05-31.04-8.104-41.92-12.16c-10.88-4.05-20.215-10.56-28-19.52c-7.79-8.96-11.68-20.905-11.68-35.84
		c0-13.01,3.52-24.8,10.56-35.36c7.04-10.56,17.65-18.93,31.84-25.12c14.185-6.185,31.52-9.28,52-9.28
		c14.29,0,28.265,1.71,41.92,5.12c13.65,3.415,25.6,8.32,35.84,14.72l-16,39.359c-20.695-11.729-41.39-17.6-62.08-17.6
		c-14.51,0-25.23,2.35-32.16,7.04c-6.935,4.695-10.4,10.88-10.4,18.56c0,7.681,4,13.391,12,17.12c8,3.735,20.21,7.415,36.64,11.04
		c17.065,4.056,31.04,8.11,41.92,12.16c10.88,4.055,20.21,10.455,28,19.2c7.785,8.75,11.68,20.59,11.68,35.52
		c0,12.801-3.575,24.48-10.72,35.04c-7.15,10.561-17.87,18.936-32.16,25.12c-14.295,6.186-31.68,9.28-52.16,9.28
		C683.169,270.621,666.049,268.221,649.519,263.421z"/>
	<path d="M830.474,62.621c-5.76-5.33-8.64-11.945-8.64-19.84c0-7.89,2.88-14.505,8.64-19.84c5.76-5.33,13.225-8,22.4-8
		c9.17,0,16.64,2.56,22.4,7.68c5.76,5.12,8.64,11.52,8.64,19.2c0,8.32-2.88,15.2-8.64,20.64c-5.76,5.44-13.23,8.16-22.4,8.16
		C843.7,70.621,836.234,67.956,830.474,62.621z M827.914,94.621h49.92v172.16h-49.92V94.621z"/>
	<path d="M1196.073,111.101c12.69,12.695,19.04,31.735,19.04,57.12v98.561h-49.92v-90.88c0-13.65-2.83-23.841-8.48-30.561
		c-5.654-6.72-13.71-10.08-24.159-10.08c-11.735,0-21.016,3.79-27.841,11.36c-6.83,7.575-10.24,18.83-10.24,33.76v86.4h-49.92
		v-90.88c0-27.091-10.88-40.641-32.64-40.641c-11.52,0-20.695,3.79-27.52,11.36c-6.83,7.575-10.24,18.83-10.24,33.76v86.4h-49.92
		V94.621h47.68v19.84c6.4-7.25,14.24-12.8,23.521-16.64c9.279-3.84,19.465-5.761,30.56-5.761c12.16,0,23.145,2.4,32.96,7.2
		c9.81,4.8,17.705,11.79,23.68,20.96c7.04-8.96,15.945-15.89,26.721-20.8c10.77-4.905,22.56-7.36,35.359-7.36
		C1166.259,92.061,1183.378,98.411,1196.073,111.101z"/>
	<path d="M1390.792,111.101c14.29,12.695,21.44,31.841,21.44,57.44v98.24h-46.721v-21.44c-9.39,16-26.88,24-52.479,24
		c-13.23,0-24.695-2.24-34.4-6.72c-9.71-4.48-17.12-10.665-22.24-18.561c-5.119-7.89-7.68-16.85-7.68-26.88
		c0-16,6.025-28.585,18.08-37.76c12.05-9.17,30.665-13.76,55.84-13.76h39.681c0-10.88-3.311-19.25-9.921-25.12
		c-6.614-5.865-16.534-8.8-29.76-8.8c-9.175,0-18.189,1.439-27.04,4.319c-8.854,2.881-16.375,6.775-22.56,11.681l-17.92-34.88
		c9.385-6.61,20.64-11.73,33.76-15.36c13.12-3.625,26.61-5.44,40.48-5.44C1356.016,92.061,1376.497,98.411,1390.792,111.101z
		 M1348.232,229.822c6.609-3.945,11.305-9.761,14.08-17.44v-17.6h-34.24c-20.48,0-30.72,6.72-30.72,20.16
		c0,6.399,2.505,11.47,7.52,15.199c5.01,3.735,11.89,5.601,20.64,5.601C1334.042,235.741,1341.617,233.772,1348.232,229.822z"/>
	<path d="M1634.628,29.342v237.44h-47.681v-19.84c-12.375,14.935-30.295,22.399-53.76,22.399c-16.215,0-30.88-3.625-44-10.88
		c-13.12-7.25-23.415-17.6-30.88-31.04c-7.47-13.439-11.2-29.01-11.2-46.72c0-17.705,3.73-33.28,11.2-46.72
		c7.465-13.44,17.76-23.785,30.88-31.04c13.12-7.25,27.785-10.881,44-10.881c21.97,0,39.146,6.936,51.521,20.801v-83.52H1634.628z
		 M1573.187,215.421c8.32-8.64,12.48-20.21,12.48-34.72c0-14.505-4.16-26.08-12.48-34.72c-8.32-8.641-18.775-12.96-31.36-12.96
		c-12.8,0-23.359,4.319-31.68,12.96c-8.32,8.64-12.479,20.215-12.479,34.72c0,14.51,4.159,26.08,12.479,34.72
		s18.88,12.96,31.68,12.96C1554.412,228.381,1564.867,224.061,1573.187,215.421z"/>
	<path d="M1811.583,111.101c14.29,12.695,21.44,31.841,21.44,57.44v98.24h-46.721v-21.44c-9.39,16-26.88,24-52.479,24
		c-13.23,0-24.695-2.24-34.4-6.72c-9.71-4.48-17.12-10.665-22.24-18.561c-5.119-7.89-7.68-16.85-7.68-26.88
		c0-16,6.025-28.585,18.08-37.76c12.05-9.17,30.665-13.76,55.84-13.76h39.681c0-10.88-3.311-19.25-9.921-25.12
		c-6.614-5.865-16.534-8.8-29.76-8.8c-9.175,0-18.189,1.439-27.04,4.319c-8.854,2.881-16.375,6.775-22.56,11.681l-17.92-34.88
		c9.385-6.61,20.64-11.73,33.76-15.36c13.12-3.625,26.61-5.44,40.48-5.44C1776.807,92.061,1797.288,98.411,1811.583,111.101z
		 M1769.023,229.822c6.609-3.945,11.305-9.761,14.08-17.44v-17.6h-34.24c-20.48,0-30.72,6.72-30.72,20.16
		c0,6.399,2.505,11.47,7.52,15.199c5.01,3.735,11.89,5.601,20.64,5.601C1754.833,235.741,1762.408,233.772,1769.023,229.822z"/>
</g>
<g>
	<path d="M633.598,389.208c-6.123-3.506-10.912-8.399-14.366-14.68c-3.454-6.28-5.181-13.396-5.181-21.352
		c0-7.953,1.727-15.072,5.181-21.353c3.454-6.28,8.243-11.172,14.366-14.68c6.123-3.505,12.953-5.259,20.488-5.259
		c7.639,0,14.496,1.754,20.567,5.259c6.069,3.508,10.833,8.399,14.287,14.68c3.454,6.28,5.181,13.399,5.181,21.353
		c0,7.955-1.727,15.071-5.181,21.352c-3.454,6.28-8.218,11.174-14.287,14.68c-6.072,3.508-12.928,5.26-20.567,5.26
		C646.55,394.468,639.721,392.716,633.598,389.208z M671.906,385.126c5.284-3.086,9.444-7.403,12.481-12.953
		c3.034-5.546,4.553-11.878,4.553-18.996c0-7.117-1.519-13.424-4.553-18.919c-3.037-5.495-7.198-9.785-12.481-12.874
		c-5.287-3.086-11.226-4.632-17.82-4.632c-6.594,0-12.535,1.546-17.819,4.632c-5.287,3.089-9.447,7.379-12.481,12.874
		c-3.037,5.495-4.553,11.802-4.553,18.919c0,7.118,1.516,13.45,4.553,18.996c3.035,5.55,7.195,9.867,12.481,12.953
		c5.284,3.088,11.226,4.632,17.819,4.632C660.68,389.758,666.619,388.214,671.906,385.126z"/>
	<path d="M732.507,389.208c-6.123-3.506-10.938-8.399-14.444-14.68c-3.508-6.28-5.259-13.396-5.259-21.352
		c0-7.953,1.751-15.072,5.259-21.353c3.505-6.28,8.321-11.172,14.444-14.68c6.123-3.505,13.056-5.259,20.803-5.259
		c6.174,0,11.905,1.177,17.191,3.532c5.284,2.354,9.602,5.836,12.953,10.44l-3.925,3.297c-2.931-4.082-6.672-7.168-11.225-9.263
		c-4.553-2.093-9.553-3.141-14.994-3.141c-6.7,0-12.744,1.546-18.133,4.632c-5.392,3.089-9.604,7.379-12.639,12.874
		c-3.037,5.495-4.553,11.802-4.553,18.919c0,7.118,1.516,13.45,4.553,18.996c3.035,5.55,7.247,9.867,12.639,12.953
		c5.389,3.088,11.434,4.632,18.133,4.632c5.441,0,10.44-1.046,14.994-3.141c4.553-2.093,8.294-5.181,11.225-9.263l3.925,3.14
		c-3.351,4.607-7.668,8.086-12.953,10.44c-5.287,2.355-11.017,3.533-17.191,3.533C745.562,394.468,738.63,392.716,732.507,389.208z"
		/>
	<path d="M857.871,317.224h-32.499v76.772h-5.181v-76.772h-32.656v-4.71h70.336V317.224z"/>
	<path d="M935.74,317.145c6.069,3.508,10.858,8.427,14.366,14.759c3.505,6.333,5.259,13.477,5.259,21.43
		c0,7.956-1.754,15.048-5.259,21.273c-3.508,6.229-8.296,11.096-14.366,14.602c-6.071,3.508-12.822,5.26-20.253,5.26
		c-7.85,0-14.89-1.987-21.116-5.967c-6.229-3.977-10.86-9.42-13.895-16.328v52.281h-5.181v-111.94h5.024v22.294
		c3.035-7.117,7.666-12.718,13.895-16.799c6.226-4.082,13.318-6.123,21.273-6.123C922.918,311.886,929.669,313.64,935.74,317.145z
		 M933.15,385.126c5.284-3.086,9.445-7.379,12.481-12.874c3.035-5.495,4.553-11.8,4.553-18.919c0-7.116-1.519-13.447-4.553-18.997
		c-3.037-5.546-7.197-9.863-12.481-12.952c-5.287-3.086-11.226-4.632-17.819-4.632c-6.594,0-12.536,1.546-17.82,4.632
		c-5.286,3.089-9.447,7.406-12.481,12.952c-3.037,5.55-4.553,11.881-4.553,18.997c0,7.119,1.516,13.424,4.553,18.919
		c3.035,5.495,7.195,9.788,12.481,12.874c5.284,3.088,11.226,4.632,17.82,4.632C921.924,389.758,927.863,388.214,933.15,385.126z"/>
	<path d="M993.437,389.208c-6.123-3.506-10.911-8.399-14.365-14.68c-3.454-6.28-5.181-13.396-5.181-21.352
		c0-7.953,1.727-15.072,5.181-21.353c3.454-6.28,8.242-11.172,14.365-14.68c6.123-3.505,12.953-5.259,20.488-5.259
		c7.64,0,14.496,1.754,20.567,5.259c6.069,3.508,10.833,8.399,14.287,14.68s5.181,13.399,5.181,21.353
		c0,7.955-1.727,15.071-5.181,21.352s-8.218,11.174-14.287,14.68c-6.071,3.508-12.928,5.26-20.567,5.26
		C1006.391,394.468,999.56,392.716,993.437,389.208z M1031.746,385.126c5.283-3.086,9.444-7.403,12.481-12.953
		c3.034-5.546,4.553-11.878,4.553-18.996c0-7.117-1.519-13.424-4.553-18.919c-3.037-5.495-7.198-9.785-12.481-12.874
		c-5.287-3.086-11.226-4.632-17.82-4.632c-6.594,0-12.535,1.546-17.819,4.632c-5.286,3.089-9.446,7.379-12.481,12.874
		c-3.037,5.495-4.553,11.802-4.553,18.919c0,7.118,1.516,13.45,4.553,18.996c3.035,5.55,7.195,9.867,12.481,12.953
		c5.284,3.088,11.226,4.632,17.819,4.632C1020.52,389.758,1026.459,388.214,1031.746,385.126z"/>
	<path d="M1145.491,372.33c0,7.119-2.538,12.509-7.614,16.171c-5.078,3.665-12.744,5.495-23,5.495h-33.755v-81.482h32.97
		c8.895,0,15.856,1.78,20.881,5.338c5.024,3.56,7.536,8.688,7.536,15.386c0,4.921-1.389,8.976-4.161,12.168
		c-2.774,3.193-6.62,5.416-11.539,6.672C1139.263,354.067,1145.491,360.818,1145.491,372.33z M1086.303,350.508h27.789
		c7.431,0,13.161-1.413,17.191-4.239c4.028-2.826,6.044-7.012,6.044-12.561c0-5.546-2.016-9.733-6.044-12.56
		c-4.03-2.826-9.761-4.239-17.191-4.239h-27.789V350.508z M1133.952,385.362c4.239-2.826,6.358-7.222,6.358-13.188
		c0-5.966-1.911-10.361-5.73-13.188c-3.822-2.826-9.812-4.239-17.977-4.239h-30.301v34.854h28.73
		C1123.406,389.601,1129.713,388.188,1133.952,385.362z"/>
	<path d="M1240.63,354.904h-20.881v39.093h-5.181v-81.482h5.181v37.837h21.038l32.185-37.837h5.966l-34.068,39.878l36.581,41.604
		h-6.28L1240.63,354.904z"/>
	<path d="M1362.617,317.145c6.07,3.508,10.857,8.427,14.367,14.759c3.504,6.333,5.258,13.477,5.258,21.43
		c0,7.956-1.754,15.048-5.258,21.273c-3.51,6.229-8.297,11.096-14.367,14.602c-6.07,3.508-12.822,5.26-20.252,5.26
		c-7.85,0-14.891-1.987-21.117-5.967c-6.229-3.977-10.859-9.42-13.895-16.328v52.281h-5.18v-111.94h5.023v22.294
		c3.033-7.117,7.666-12.718,13.895-16.799c6.227-4.082,13.318-6.123,21.273-6.123
		C1349.795,311.886,1356.547,313.64,1362.617,317.145z M1360.027,385.126c5.283-3.086,9.445-7.379,12.482-12.874
		c3.033-5.495,4.553-11.8,4.553-18.919c0-7.116-1.52-13.447-4.553-18.997c-3.037-5.546-7.199-9.863-12.482-12.952
		c-5.287-3.086-11.225-4.632-17.82-4.632c-6.594,0-12.535,1.546-17.818,4.632c-5.287,3.089-9.447,7.406-12.482,12.952
		c-3.037,5.55-4.553,11.881-4.553,18.997c0,7.119,1.516,13.424,4.553,18.919c3.035,5.495,7.195,9.788,12.482,12.874
		c5.283,3.088,11.225,4.632,17.818,4.632C1348.803,389.758,1354.74,388.214,1360.027,385.126z"/>
	<path d="M1457.839,319.421c5.182,5.024,7.771,12.301,7.771,21.823v52.752h-5.023v-16.328c-2.618,5.235-6.516,9.342-11.697,12.325
		c-5.181,2.982-11.382,4.475-18.604,4.475c-9.105,0-16.249-2.093-21.43-6.28c-5.182-4.186-7.771-9.734-7.771-16.643
		c0-6.594,2.354-11.956,7.064-16.092c4.71-4.134,12.246-6.202,22.608-6.202h29.673v-8.007c0-8.059-2.119-14.182-6.358-18.369
		c-4.239-4.185-10.495-6.279-18.762-6.279c-5.758,0-11.146,0.995-16.171,2.982c-5.024,1.989-9.317,4.658-12.874,8.007l-2.826-3.768
		c3.977-3.768,8.766-6.697,14.365-8.792c5.599-2.093,11.486-3.14,17.663-3.14C1445.2,311.886,1452.658,314.398,1457.839,319.421z
		 M1460.43,370.447v-16.956h-29.673c-8.479,0-14.68,1.597-18.604,4.789c-3.925,3.193-5.888,7.511-5.888,12.952
		c0,5.863,2.171,10.468,6.516,13.815c4.342,3.352,10.283,5.024,17.819,5.024C1445.252,390.072,1455.194,383.532,1460.43,370.447z"/>
	<path d="M1510.119,389.208c-6.123-3.506-10.938-8.399-14.444-14.68c-3.508-6.28-5.26-13.396-5.26-21.352
		c0-7.953,1.752-15.072,5.26-21.353c3.506-6.28,8.321-11.172,14.444-14.68c6.123-3.505,13.056-5.259,20.802-5.259
		c6.175,0,11.905,1.177,17.192,3.532c5.283,2.354,9.602,5.836,12.952,10.44l-3.925,3.297c-2.932-4.082-6.673-7.168-11.226-9.263
		c-4.553-2.093-9.553-3.141-14.994-3.141c-6.699,0-12.743,1.546-18.133,4.632c-5.393,3.089-9.604,7.379-12.639,12.874
		c-3.037,5.495-4.553,11.802-4.553,18.919c0,7.118,1.516,13.45,4.553,18.996c3.034,5.55,7.246,9.867,12.639,12.953
		c5.39,3.088,11.434,4.632,18.133,4.632c5.441,0,10.441-1.046,14.994-3.141c4.553-2.093,8.294-5.181,11.226-9.263l3.925,3.14
		c-3.351,4.607-7.669,8.086-12.952,10.44c-5.287,2.355-11.018,3.533-17.192,3.533
		C1523.175,394.468,1516.242,392.716,1510.119,389.208z"/>
	<path d="M1595.055,389.208c-6.123-3.506-10.911-8.399-14.365-14.68s-5.182-13.396-5.182-21.352c0-7.953,1.728-15.072,5.182-21.353
		s8.242-11.172,14.365-14.68c6.123-3.505,12.952-5.259,20.488-5.259c7.64,0,14.496,1.754,20.567,5.259
		c6.068,3.508,10.833,8.399,14.287,14.68s5.181,13.399,5.181,21.353c0,7.955-1.727,15.071-5.181,21.352s-8.219,11.174-14.287,14.68
		c-6.071,3.508-12.928,5.26-20.567,5.26C1608.007,394.468,1601.178,392.716,1595.055,389.208z M1633.362,385.126
		c5.284-3.086,9.445-7.403,12.481-12.953c3.035-5.546,4.554-11.878,4.554-18.996c0-7.117-1.519-13.424-4.554-18.919
		c-3.036-5.495-7.197-9.785-12.481-12.874c-5.286-3.086-11.226-4.632-17.819-4.632s-12.535,1.546-17.819,4.632
		c-5.286,3.089-9.447,7.379-12.481,12.874c-3.037,5.495-4.553,11.802-4.553,18.919c0,7.118,1.516,13.45,4.553,18.996
		c3.034,5.55,7.195,9.867,12.481,12.953c5.284,3.088,11.226,4.632,17.819,4.632S1628.076,388.214,1633.362,385.126z"/>
	<path d="M1731.725,317.224h-32.499v76.772h-5.182v-76.772h-32.655v-4.71h70.336V317.224z"/>
	<path d="M1802.53,349.488c5.232,4.238,7.85,10.44,7.85,18.604c0,8.688-2.774,15.256-8.321,19.703
		c-5.549,4.45-13.556,6.618-24.021,6.516l-29.045-0.314v-81.482h5.181V342.5l25.435,0.314
		C1789.656,343.026,1797.295,345.248,1802.53,349.488z M1798.291,384.576c4.604-3.662,6.908-9.105,6.908-16.328
		c0-7.116-2.252-12.376-6.751-15.778c-4.502-3.4-11.305-5.205-20.41-5.416l-23.864-0.314v43.019l23.864,0.156
		C1786.932,390.02,1793.683,388.241,1798.291,384.576z M1826.237,312.514h5.181v81.482h-5.181V312.514z"/>
</g>
<g>
</g>
<g>
</g>
<g>
</g>
<g>
</g>
<g>
</g>
<g>
</g>
</svg>
