<?xml version="1.0" encoding="UTF-8"?>
<svg width="196px" height="42px" viewBox="0 0 196 42" version="1.1" xmlns="http://www.w3.org/2000/svg" xmlns:xlink="http://www.w3.org/1999/xlink">
    <!-- Generator: Sketch 49.3 (51167) - http://www.bohemiancoding.com/sketch -->
    <title>logo</title>
    <desc>Created with Sketch.</desc>
    <defs></defs>
    <g id="Services" stroke="none" stroke-width="1" fill="none" fill-rule="evenodd">
        <g id="iPhone-8" transform="translate(-90.000000, -111.000000)">
            <g id="Оффер" transform="translate(-371.000000, 42.000000)">
                <g id="Offer__image">
                    <g id="logo" transform="translate(461.000000, 69.000000)">
                        <path d="M170.883516,20.3478852 L169.328137,24.2939958 L170.992183,24.2939958 C174.354314,24.2939958 177.573739,23.9859634 180.651765,23.3711662 L181.940058,23.116374 L180.757813,19.6316782 C180.40039,18.6746228 180.078317,17.6732006 179.792903,16.6324821 C179.506179,15.5904959 179.219455,14.5066782 178.93404,13.3784937 C178.790024,12.7294707 178.630296,11.9245301 178.45093,10.9687423 C178.271564,10.0129545 178.038519,8.88350235 177.754414,7.58672397 L177.700735,7.32812886 L176.949231,8.50955355 C175.697596,10.5250742 174.570339,12.5241158 173.570079,14.5066782 C172.565891,16.4854378 171.671679,18.4337744 170.883516,20.3478852 M164.982765,41 L163.37109,40.5385852 C163.194342,38.2847514 163.83587,34.0470876 165.30353,27.8306641 L165.626912,26.4464197 L165.573233,26.4464197 C162.3525,26.4464197 159.3491,25.9850049 156.557798,25.0621754 L156.504119,23.6259584 C157.970469,23.7970876 159.508828,23.9428642 161.117885,24.0620208 C162.726943,24.182445 164.409318,24.2572347 166.162392,24.2927282 L166.860217,21.8335395 C169.68556,11.857346 172.815956,4.57738684 176.250096,0.00126762305 L181.831391,1.17762182 C181.581326,1.52114766 181.322096,1.89763171 181.053702,2.30834158 C180.785307,2.71778382 180.47109,3.16018427 180.113667,3.64061341 L179.364781,4.7675303 L179.41846,4.97034999 C179.989289,7.1924932 180.492037,9.0622372 180.920159,10.5821172 C181.34959,12.1032649 181.707013,13.2910277 181.993737,14.1454056 C182.495176,15.714723 183.021491,17.17756 183.577919,18.5263109 C184.131728,19.8763295 184.71434,21.0970505 185.320519,22.1910092 L185.429186,22.447069 L185.590223,22.447069 C187.091923,22.1390366 188.68396,21.7549468 190.366335,21.293532 C192.047401,20.8321172 193.817495,20.3123918 195.677927,19.7305528 L195.355853,24.5475204 C193.56743,25.1965434 191.205559,25.7099307 188.272858,26.0864148 L187.467675,26.1890923 L187.467675,26.2397972 C188.720619,28.6318019 191.562981,32.8859448 196,39.0009584 L190.366335,40.2330881 C187.969114,37.0538894 185.875637,33.1927096 184.087214,28.6508162 L183.28203,26.5998021 L182.637884,26.6517747 C181.780331,26.7189587 180.88481,26.7721989 179.955248,26.8051571 C179.025687,26.8393829 178.059467,26.855862 177.057898,26.855862 C175.556198,26.855862 174.295399,26.8482562 173.2755,26.8305095 C172.254291,26.8140304 171.479221,26.7874103 170.941122,26.7531845 L168.526882,26.5998021 L167.937723,28.4454613 C167.364275,30.255627 166.827486,32.212837 166.327356,34.314556 C165.821989,36.4150074 165.375538,38.6434887 164.982765,41 M137.431093,19.0130782 L138.879113,18.8102585 C142.349912,18.3653228 145.262974,17.1851657 147.626154,15.2723225 L149.182842,14.0439958 L148.644744,13.0184887 C146.141475,8.33715681 142.599977,5.09077418 138.020251,3.28060846 L136.946673,2.86989859 L137.10771,4.15273312 C137.287076,5.72205046 137.431093,7.25967722 137.535832,8.76434578 C137.644499,10.2652115 137.698178,11.7369218 137.698178,13.1718711 C137.698178,13.85512 137.670684,14.6854131 137.617005,15.6564123 C137.565944,16.6312144 137.501792,17.749258 137.431093,19.0130782 M134.694778,36.3871197 L134.265347,37.9247465 L135.552331,37.822069 C140.561488,37.4126268 144.673815,35.6176725 147.894549,32.4397415 L148.109264,32.1862169 L147.626154,31.2114148 C145.551007,27.0092444 142.201968,23.9720195 137.592129,22.0883317 L137.215068,21.9349493 L137.161389,21.9349493 L137.001661,23.8300458 C136.822295,25.8810599 136.536881,27.958694 136.142799,30.0578778 C135.750027,32.1608645 135.265608,34.2714568 134.694778,36.3871197 M133.406485,41 L131.849797,40.9492951 C132.351237,37.9437608 132.736153,35.1676663 133.003239,32.6210116 C133.272942,30.0756245 133.406485,27.7444657 133.406485,25.6262676 C133.406485,23.7806085 133.352806,22.2087559 133.245448,20.9107099 L132.816017,15.7844422 C132.636651,13.4621568 132.287084,10.9852214 131.768624,8.35363591 C131.251474,5.7245857 130.544484,2.93961786 129.648963,0.0025352461 C131.081272,0.13690329 133.351497,0.598318081 136.464873,1.385512 L136.679588,1.43621692 L136.733267,1.43621692 L138.50467,2.00030918 C144.874129,3.98160401 149.325549,6.93770096 151.866787,10.8660648 L152.67197,12.0969268 L151.814417,13.0704613 C151.6704,13.2415904 151.500199,13.438072 151.303813,13.6586384 C151.107427,13.88174 150.883546,14.1276589 150.633481,14.4027331 L149.828298,15.2228852 L149.451237,15.5816226 C146.196463,18.6911019 143.067376,20.6090156 140.061358,21.3201521 L139.847952,21.3721247 L140.759184,21.7815669 C145.410918,23.8668068 148.681403,26.361489 150.578493,29.2643458 L150.73953,29.4697007 L151.277628,30.2898528 L151.062912,30.4952078 C150.526124,31.2126824 150.130733,31.6905763 149.881977,31.9288894 L148.647362,33.2104563 L148.647362,33.2624289 C146.358809,35.8597885 143.604165,37.8398157 140.384741,39.2063134 C139.167146,39.7526589 137.978355,40.1735098 136.815749,40.4625278 C135.651834,40.7515459 134.515412,40.932816 133.406485,41 M99.6280606,20.3478852 L98.0700635,24.2927282 L99.7341092,24.2927282 C103.096241,24.2927282 106.315665,23.9846958 109.393691,23.3698986 L110.681985,23.1151064 L109.501049,19.6304106 C109.142317,18.6733552 108.820243,17.671933 108.53352,16.6312144 C108.248105,15.5917635 107.96269,14.5054106 107.677276,13.3772261 C107.533259,12.7282031 107.372223,11.9232624 107.194166,10.9674746 C107.0148,10.0116869 106.781755,8.88223473 106.49634,7.58545634 L106.442661,7.32686124 L105.692466,8.50828593 C104.439522,10.5238066 103.313575,12.5241158 102.310696,14.5054106 C101.310436,16.4854378 100.416224,18.4337744 99.6280606,20.3478852 M93.7246918,41 L92.1143251,40.5385852 C91.9362683,38.2847514 92.5791057,34.0470876 94.0467652,27.8306641 L94.3688385,26.4464197 L94.3151596,26.4464197 C91.0970446,26.4464197 88.0897175,25.9850049 85.2997244,25.0621754 L85.2473547,23.6259584 C86.7123957,23.7970876 88.2507542,23.9428642 89.8611209,24.0620208 C91.4714876,24.182445 93.1538626,24.2572347 94.9069367,24.2927282 L95.603453,21.8335395 C98.4287957,11.857346 101.560501,4.57738684 104.993331,0.00126762305 L110.574627,1.17762182 C110.323252,1.52114766 110.065332,1.89889933 109.795628,2.30834158 C109.528543,2.71778382 109.214325,3.16018427 108.856902,3.64061341 L108.105398,4.7675303 L108.159077,4.97034999 C108.731215,7.1924932 109.232654,9.0622372 109.660776,10.5821172 C110.090207,12.1032649 110.44894,13.2910277 110.734354,14.1454056 C111.234484,15.714723 111.763418,17.17756 112.318536,18.5263109 C112.872345,19.8750618 113.453648,21.0970505 114.061136,22.1910092 L114.168494,22.447069 L114.33084,22.447069 C115.83254,22.1390366 117.424577,21.7549468 119.105643,21.293532 C120.788018,20.8346525 122.558112,20.3123918 124.418544,19.7305528 L124.09647,24.5475204 C122.308047,25.1965434 119.944866,25.712466 117.014784,26.0864148 L116.209601,26.1890923 L116.209601,26.2397972 C117.461236,28.6318019 120.303598,32.8859448 124.740617,39.0009584 L119.105643,40.2330881 C116.709731,37.0538894 114.616254,33.1927096 112.827831,28.6508162 L112.022648,26.5998021 L111.378501,26.6517747 C110.520948,26.7189587 109.625427,26.7721989 108.694556,26.8051571 C107.763686,26.8393829 106.798775,26.855862 105.797205,26.855862 C104.294196,26.855862 103.033397,26.845721 102.014807,26.8305095 C100.996218,26.8140304 100.218528,26.7874103 99.6804303,26.7531845 L97.2661894,26.5998021 L96.6770309,28.4454613 C96.1048924,30.255627 95.5681035,32.212837 95.0679734,34.314556 C94.5652247,36.4150074 94.1187734,38.6434887 93.7246918,41 M66.9572544,41 L65.3455784,40.8973225 C66.2397902,36.833323 66.9048848,33.0558063 67.3303882,29.5723782 C67.7572008,26.0902177 67.9745349,22.9262305 67.9745349,20.0918254 C67.9745349,15.240632 67.4744047,10.6277517 66.4715259,6.25191689 L66.0420948,4.25414296 L63.8412602,3.69131833 L63.8949391,2.61383873 L65.7226399,2.86989859 L65.1308629,0.769447193 L71.6783784,0.0025352461 C71.7137279,0.24084838 71.7608606,0.600853327 71.8132302,1.07874722 C71.8629814,1.55283824 71.9284435,2.13721247 72.0004517,2.82046129 L72.0528214,3.58990848 L74.6843963,3.69258595 C80.3717403,3.89540564 86.6142026,3.11074697 93.4104739,1.33353945 L92.7126483,6.20247959 C91.1022816,6.37234108 89.590108,6.51177962 88.1787459,6.61318946 C86.7700023,6.71206406 85.4515964,6.76657185 84.2353112,6.76657185 C81.1599035,6.76657185 77.6000766,6.45853945 73.5571396,5.84374227 L72.2151673,5.63838734 L72.2151673,6.35586198 C72.2151673,6.79572718 72.2439706,7.47770838 72.2963402,8.38152362 C72.3460914,9.28407123 72.376204,9.96098194 72.376204,10.40465 C72.376204,20.072811 70.569451,30.2721061 66.9572544,41 M45.1217288,36.6951521 L46.8394533,37.0031845 L46.9481204,36.4910648 C48.2717633,30.4761934 48.9329301,25.0444286 48.9329301,20.1932352 C48.9329301,15.751484 48.4485108,11.3591702 47.4836,7.02136409 L46.8931322,4.35555281 L46.626047,4.45823027 C45.0863793,4.79922088 43.5467116,5.04894262 42.0109716,5.20105738 C40.4739224,5.35190453 38.9342547,5.43176478 37.3958962,5.43176478 C36.4309854,5.43176478 35.5001148,5.40641232 34.6059031,5.35697502 C33.7116913,5.30500247 32.852829,5.21246599 32.0306255,5.0755627 L31.3341092,4.97034999 L31.1730725,5.7905021 C30.9937065,6.71206406 30.7672077,7.85926292 30.5001225,9.22449295 C30.2356558,10.5884554 29.9554781,12.1628432 29.6687543,13.9387831 C29.346681,16.5361427 29.1856443,19.0650507 29.1856443,21.525507 C29.1856443,24.7718897 29.7054131,29.2820925 30.7410229,35.0561155 L31.0644055,36.745857 L32.190353,36.5430373 C34.014126,36.2692308 36.0355945,36.1323275 38.2547584,36.1323275 C39.4697343,36.1323275 40.6441237,36.1855676 41.768762,36.2869775 C42.892091,36.3858521 44.0128015,36.5252906 45.1217288,36.6951521 M26.9848097,41 L27.3068831,37.415162 C27.4508996,37.3784009 27.6669244,37.3340341 27.9510298,37.2845968 C28.2338259,37.2364272 28.5781563,37.1743136 28.9709287,37.105862 L29.346681,37.0538894 L29.0232984,36.1830324 C26.3419723,28.9056085 25,21.0133873 25,12.5038338 C25,11.3769169 25.0536789,10.0192926 25.1623459,8.4296933 C25.2683945,6.84009399 25.412411,5.00457581 25.591777,2.92060351 L31.81591,3.22863591 C37.9680346,3.53540069 44.2288263,2.45918872 50.5956665,0 L50.3809509,3.58737324 L49.7368042,3.74202325 C49.6294464,3.77498145 49.4932854,3.81174252 49.3335579,3.84470072 C49.1751397,3.87512367 48.9669704,3.92963146 48.7169053,3.99808311 L48.5558686,4.05005565 L49.0913483,5.58641479 C51.3445525,12.042419 52.4718092,18.8267376 52.4718092,25.9317648 C52.4718092,26.7874103 52.3906362,28.2134863 52.2295996,30.2112602 C52.0698721,32.2115694 51.8459919,34.8165348 51.559268,38.0274239 L51.4519103,39.1543408 L51.3995406,39.1543408 L48.3948319,38.9515211 C47.1418881,38.8805343 45.985828,38.8196884 44.9331981,38.7715187 C43.8779496,38.723349 42.9208943,38.6941937 42.0607228,38.6941937 C36.7334201,38.6941937 31.7059337,39.4636409 26.9848097,41" id="ogava" fill="#BE8714" fill-rule="nonzero"></path>
                        <g id="left" fill="#D0021B">
                            <path d="M0.304970563,40.3286222 L0.304970563,40.1851177 C0.521152229,39.1370219 2.2055677,39.6405692 3.0008074,39.4227498 C6.37993272,39.5098775 9.86457527,39.3894362 13.2038099,39.6815705 C17.8105383,39.9250157 20.3738352,41.3190599 13.4264256,41.1076469 C10.8682759,41.3011218 6.31044575,40.5515668 4.11259882,41.5086909 C2.5903196,41.5086909 0.778511354,42.0698962 0.304970563,40.3286222" id="Shape"></path>
                            <path d="M1.59691337,34.8549487 C5.03651808,33.3366193 9.85942809,34.7306635 13.6130109,34.2540234 C14.2152313,34.2540234 17.5596131,34.0195472 17.711455,34.7806338 C17.8684441,34.7806338 18.3857359,36.1272703 16.0399075,36.1272703 C15.5534987,35.4712495 6.01190917,35.8236044 5.14718251,36.1388019 C4.15763667,36.1618651 0.806820858,36.9639531 1.59691337,34.8549487" id="Shape"></path>
                            <path d="M2.96477712,29.2057384 L2.99952061,29.2057384 C3.03941127,29.3236171 5.57825904,29.5183733 5.62458368,29.3825565 C8.33200168,29.6285643 11.1680992,29.2390519 13.8690833,29.3646184 C14.424979,29.29671 16.9741211,29.2621151 16.9741211,29.3466803 C17.2147519,29.2992726 10.118074,31.4377466 2.88885618,31.0302962 C2.40373423,30.7099735 2.87727502,30.0052637 2.63149706,30.1090482 C2.60061396,29.6644404 2.94933558,29.2223951 2.96477712,29.2057384" id="Shape"></path>
                            <path d="M5.19608074,24.2420185 C5.86392767,24.6174367 11.4318923,24.226643 12.466476,24.2035798 C13.5769807,24.2497062 14.2692767,24.288145 15.3733474,24.116452 C16.074651,23.5667783 17.7796552,24.7660664 17.0719176,25.6885956 C17.056476,25.6578446 17.0654836,25.7590666 16.9805551,25.8256937 C16.7244828,26.0230125 16.1081077,26.3792113 15.3656266,25.7206279 C14.6231455,25.5028085 13.6181581,25.6245311 12.9618923,25.686033 C9.003709,25.7039711 5.61557611,26.0665763 2.29693019,24.1100456 C1.41032801,23.6692816 -0.290815812,22.3111135 1.68312868,22.2931755 C2.6482254,22.6224672 3.96461733,23.9345088 5.19608074,24.2420185" id="Shape"></path>
                            <path d="M6.21522288,19.6434665 C5.02236333,19.2770174 5.13431455,18.33655 6.64243902,18.0854171 C7.44797309,17.7932828 7.5624979,17.7420312 8.88146341,17.2141395 C10.0215643,16.4991793 11.0381329,16.1083857 12.3609588,15.1166667 C15.1635997,13.5137722 11.648074,16.938662 11.1732464,17.5805886 C10.9274685,17.7356247 10.9030193,18.0213525 9.89288478,18.587683 C8.58292683,19.1898896 7.56635828,19.5742768 6.21522288,19.6434665" id="Shape"></path>
                            <path d="M5.18964676,11.5098336 C5.18578638,11.5175214 9.46824222,11.2330749 10.5182675,11.4303936 C12.4536081,11.6828079 14.2371068,11.3906736 16.1724474,11.3906736 C16.4594029,11.2804826 17.6561228,11.2010426 17.874878,11.3496723 C19.0072582,11.5867111 18.7383179,13.7085283 17.3949033,13.7085283 C13.5718335,12.4669577 12.3802607,13.0768521 9.92376787,12.9218159 C8.11067283,13.058914 0.896896552,13.7918122 0.818402019,11.8468131 C0.500563499,11.2702323 1.78478553,7.80305987 2.34968881,7.5532082 C4.24513877,7.5532082 0.257359125,11.9762234 5.18964676,11.5098336" id="Shape"></path>
                            <path d="M3.88869638,4.78690175 C3.90027754,4.77537014 3.9118587,4.76383852 3.92343987,4.7523069 C4.68908326,4.78305788 5.09185029,4.91759339 5.66576114,5.44035997 C5.99775442,5.62358452 6.19334735,5.92340653 6.46228764,6.13738206 C8.95223717,8.10928832 16.477418,10.4604566 12.523095,9.75830935 C10.9081665,9.07410016 3.61589571,7.09963132 3.88869638,4.78690175" id="Shape"></path>
                            <path d="M5.7365349,0.00896903433 C8.05791421,-0.0358761373 10.4719428,0.0909716339 12.7997561,0.135816806 C16.6820185,0.0205006499 21.2244071,1.56829972 14.9808747,1.56829972 C11.887418,1.30435385 8.77594617,1.63748941 5.68377628,1.55933068 C-1.2353238,1.29025965 0.325559294,0.205006499 5.7365349,0.00896903433" id="Shape"></path>
                        </g>
                    </g>
                </g>
            </g>
        </g>
    </g>
</svg>