<?xml version="1.0" encoding="UTF-8"?>
<svg width="125px" height="42px" viewBox="0 0 125 42" version="1.1" xmlns="http://www.w3.org/2000/svg" xmlns:xlink="http://www.w3.org/1999/xlink">
    <!-- Generator: Sketch 49.3 (51167) - http://www.bohemiancoding.com/sketch -->
    <title>logo_full copy 2</title>
    <desc>Created with Sketch.</desc>
    <defs></defs>
    <g id="Services" stroke="none" stroke-width="1" fill="none" fill-rule="evenodd">
        <g id="Desktop" transform="translate(-100.000000, -21.000000)">
            <g id="Шапка">
                <g id="logo_full-copy-2" transform="translate(100.000000, 21.000000)">
                    <path d="M117.827383,41.275014 L117.768077,41.4616679 L118.18071,41.3871665 C118.554083,41.3038532 118.881516,41.2229432 119.162173,41.1428343 C119.44283,41.0643275 119.671698,40.9906273 119.848779,40.9241368 C120.467728,40.657374 121.059112,40.2488184 121.61959,39.699271 L121.871012,39.4613474 L121.871012,39.4493311 C121.614578,39.2658816 121.380697,39.1096692 121.16937,38.9798927 C120.958042,38.8509172 120.768431,38.7443723 120.601374,38.661059 C120.020849,38.4199311 119.396889,38.2613154 118.726988,38.186013 L118.24085,38.1475607 L118.211615,38.7107266 C118.192404,39.2202195 118.149804,39.6880558 118.086322,40.1166386 C118.02117,40.5476248 117.935135,40.9337499 117.827383,41.275014 M123.980949,41.9126812 L123.553281,41.8998638 C123.081344,40.074982 122.844122,38.2709285 122.844122,36.4877033 C122.844122,34.9472082 123.022038,33.4844188 123.375365,32.1009373 L125,32.0632861 C124.163042,34.0547945 123.745398,36.1961067 123.745398,38.4880237 C123.745398,38.9871025 123.763774,39.5230313 123.803868,40.093407 C123.843126,40.6637827 123.901596,41.2710086 123.980949,41.9126812 M117.251034,41.8878475 L117.206764,41.8878475 L116.026502,42 C116.262053,41.3078587 116.460852,40.6870143 116.624568,40.1366659 C116.786614,39.5871185 116.906895,39.1120724 116.986248,38.7123288 L117.118223,38.0994953 L117.221799,37.5002804 C117.290293,37.1085476 117.339575,36.7208203 117.36881,36.3378995 C117.39888,35.9549788 117.413915,35.5800689 117.413915,35.2131699 C117.413915,34.1965874 117.295304,33.1303373 117.058918,32.0136185 L117.530856,32.0016022 C117.738007,32.4181687 117.910076,33.1143155 118.047899,34.0884403 C118.116392,34.613955 118.170686,35.1450773 118.21078,35.6826083 C118.249203,36.2201394 118.264238,36.7680846 118.254215,37.3256429 L118.254215,37.4257791 L118.475566,37.4257791 C119.705945,37.4257791 120.866995,37.9048306 121.958717,38.8637347 L122.225174,39.1008572 L122.741381,39.6255708 L122.535065,39.9259793 L122.313714,40.1759193 C121.693095,40.9009052 120.818549,41.3919731 119.685898,41.650725 C119.144632,41.7829048 118.332732,41.8622126 117.251034,41.8878475 M111.127538,41.8998638 L109.252317,42 C110.237122,39.7337179 110.728271,37.5371305 110.728271,35.4126412 C110.728271,35.1290555 110.724094,34.873508 110.714071,34.6435953 C110.704047,34.4152848 110.689012,34.2126091 110.668965,34.0371706 L110.59546,33.3866859 L109.990712,33.3866859 C108.632533,33.3866859 107.137368,33.2280702 105.50438,32.9116398 L105.489345,32.6248498 C106.650395,32.7490187 107.767175,32.8123047 108.83885,32.8123047 C111.052363,32.8123047 113.104665,32.5407354 114.993251,32 L114.903875,32.9997597 C114.441961,33.0822719 113.908212,33.1535689 113.303463,33.2120484 C112.69788,33.2705279 112.027144,33.3201955 111.288749,33.3618521 L111.067398,33.3746696 L111.155938,33.7239446 C111.322996,34.3656172 111.448289,35.0297204 111.532653,35.7178563 C111.616182,36.4051911 111.657946,37.1077465 111.657946,37.8239205 C111.658782,39.1745574 111.481701,40.5340062 111.127538,41.8998638 M102.582543,40.9497717 L103.054481,41.0258752 L103.084551,40.9001041 C103.448737,39.4333093 103.629994,38.1083073 103.629994,36.924297 C103.629994,35.8420252 103.497183,34.7709685 103.231562,33.7119282 L103.068681,33.0622447 L102.995175,33.0878795 C102.57252,33.1711928 102.149029,33.2312745 101.726373,33.2689257 C101.302882,33.3065769 100.880226,33.325002 100.457571,33.325002 C100.191114,33.325002 99.9346805,33.3193944 99.6891058,33.3065769 C99.4435312,33.2945606 99.2071447,33.2705279 98.9807817,33.2376832 L98.7886655,33.2128495 L98.7435599,33.4123208 C98.6951132,33.6374269 98.6333019,33.9170071 98.5597966,34.2494593 C98.485456,34.5827125 98.4086095,34.9664344 98.3300924,35.3990227 C98.2423872,36.0326845 98.1981169,36.6495234 98.1981169,37.2503405 C98.1981169,38.0418169 98.3409512,39.1409116 98.6266196,40.550028 L98.7143249,40.961788 L99.0242167,40.9121205 C99.5262247,40.8456301 100.081691,40.8127854 100.692287,40.8127854 C101.027237,40.8127854 101.349658,40.8248017 101.65955,40.8504366 C101.969442,40.8752704 102.277663,40.9089161 102.582543,40.9497717 M97.5942038,42 L97.6835796,41.1244092 C97.7220028,41.1171994 97.7813083,41.1059841 97.8598253,41.0939678 C97.9391777,41.0819515 98.0327299,41.0667308 98.1404821,41.050709 L98.2440578,41.0370904 L98.1555172,40.8248017 C97.4171227,39.0495874 97.0487608,37.1245694 97.0487608,35.0497477 C97.0487608,34.774974 97.0629607,34.444124 97.093031,34.0571978 C97.1222661,33.6694705 97.1615246,33.2216615 97.2108066,32.7137707 L98.9223115,32.788272 C100.614605,32.8635745 102.336133,32.6016182 104.086897,32.0008011 L104.028427,32.8755908 L103.851345,32.913242 C103.82211,32.922054 103.785358,32.9300649 103.740252,32.9380758 C103.695982,32.9460867 103.640018,32.9597052 103.570689,32.9765281 L103.526418,32.9877433 L103.673429,33.3626532 C104.293213,34.9375951 104.603105,36.5918449 104.603105,38.3246015 C104.603105,38.5328847 104.581387,38.8813586 104.537117,39.3684211 C104.492011,39.8570856 104.431871,40.4915485 104.352518,41.275014 L104.322448,41.5489866 L104.306577,41.5489866 L103.480478,41.4993191 C103.137174,41.4824962 102.819765,41.4688777 102.529085,41.4560602 C102.23924,41.4432428 101.976124,41.4368341 101.739738,41.4368341 C100.275478,41.4376352 98.8930765,41.6250901 97.5942038,42 M88.7986221,42 L88.9013625,41.0995754 L89.285595,41.0370904 L89.2262895,40.8752704 C88.6658113,39.341184 88.3851546,37.6084275 88.3851546,35.6761996 C88.3851546,34.8502764 88.4728598,33.8633341 88.6507761,32.7137707 L88.6950464,32.4261796 L88.7100816,32.1634223 C90.0281659,32.3636946 91.1791926,32.4646319 92.1631618,32.4646319 C93.4820814,32.4646319 94.7166369,32.3100216 95.8676637,32.0016022 L95.7047825,32.9012257 C95.1643512,32.9677161 94.679049,33.0181847 94.2513816,33.0518305 C93.8237142,33.0838741 93.452011,33.1006969 93.1371075,33.1006969 C92.3210312,33.1006969 91.435626,33.0181847 90.480892,32.8515581 L90.3480812,32.8267243 L90.2453408,33.1896179 C89.7132624,35.0481455 89.4476408,36.61027 89.4476408,37.8767924 C89.4476408,38.7347593 89.5361813,39.6303773 89.7132624,40.5636466 L89.7867677,40.9513739 L89.9496488,40.9265401 C90.2645524,40.8848834 90.5886441,40.8512377 90.9235945,40.8264039 C91.258545,40.8015701 91.5976719,40.7887527 91.9418105,40.7887527 C93.2406832,40.7887527 94.5094855,40.9553793 95.7498881,41.2886325 L95.7498881,41.5505888 C94.568791,41.4760875 93.6741976,41.4384363 93.0644375,41.4384363 C91.5483899,41.4376352 90.1267299,41.6250901 88.7986221,42 M80.2978971,36.9627493 L79.8702297,37.9248578 L80.3271322,37.9248578 C81.2526312,37.9248578 82.1372011,37.8495554 82.9833477,37.6989506 L83.3383451,37.6364656 L83.0125828,36.7865097 C82.9148541,36.5525915 82.8263136,36.3090603 82.7469612,36.055916 C82.6684442,35.8011696 82.5899271,35.5368101 82.51141,35.2620364 C82.4721515,35.1042217 82.4278812,34.9079548 82.3785993,34.6740367 C82.3301526,34.4409197 82.2650001,34.166146 82.186483,33.8497156 L82.1722831,33.7864295 L81.9651317,34.0740207 C81.6218284,34.5650885 81.3119366,35.0537531 81.0362916,35.536009 C80.7606466,36.0206681 80.5150719,36.4965153 80.2978971,36.9627493 M78.6740974,42 L78.2313948,41.8878475 C78.1829481,41.337499 78.3591938,40.3040936 78.7626379,38.7876312 L78.8511784,38.4503725 L78.8361432,38.4503725 C77.9507381,38.4503725 77.123803,38.33822 76.3570087,38.1139149 L76.3411383,37.7638388 C76.7454176,37.8054955 77.1680733,37.8407434 77.6107759,37.8703837 C78.0534785,37.8984219 78.516228,37.917648 78.9973538,37.92646 L79.1886347,37.326444 C79.9662878,34.8935352 80.8274696,33.119122 81.7713449,32.0024033 L83.3066041,32.2899944 C83.2372752,32.3733077 83.1662758,32.465433 83.0919351,32.563967 C83.0184298,32.6641032 82.9323951,32.7722503 82.8338312,32.8900104 L82.6266798,33.163983 L82.6417149,33.2136506 C82.7987491,33.7559881 82.9365716,34.2118081 83.0551825,34.5827125 C83.1729581,34.9536169 83.271522,35.2428102 83.3500391,35.4518946 C83.4878616,35.8356164 83.6332017,36.1913002 83.7852241,36.5205479 C83.9380818,36.8497957 84.0976218,37.147801 84.2646793,37.4145638 L84.2939144,37.4770488 L84.3381847,37.4770488 C84.7524875,37.4017464 85.1901784,37.30882 85.6520926,37.1950653 C86.1140068,37.0829128 86.6018149,36.9555395 87.1130111,36.8137467 L87.0244706,37.988945 C86.532486,38.1467596 85.8834673,38.2725306 85.0765792,38.3638548 L84.8552279,38.3886886 L84.8552279,38.401506 C85.1985312,38.9846992 85.981196,40.021309 87.2015516,41.5137387 L85.6520926,41.8133462 C84.9930504,41.0378915 84.417537,40.0958103 83.9247172,38.9879035 L83.7033659,38.4888248 L83.5262848,38.5000401 C83.2898984,38.517664 83.0434884,38.5304815 82.7878903,38.5384923 C82.5322922,38.5473043 82.2666707,38.5505087 81.9910257,38.5505087 C81.5775582,38.5505087 81.2309137,38.5481054 80.9502569,38.5441 C80.6696002,38.5400945 80.4566018,38.5336858 80.3087558,38.5248738 L79.6447019,38.4880237 L79.4818208,38.938236 C79.3239514,39.3796363 79.1769407,39.8570856 79.0391182,40.3689818 C78.9063074,40.880878 78.7826848,41.4256188 78.6740974,42 M71.0303778,36.1744773 L71.0303778,36.637507 L71.4137749,36.5630057 C72.7519061,36.3042538 73.6723934,35.7466955 74.1744014,34.8871265 L74.2320363,34.7877914 L74.0850256,34.5122166 C73.5045005,33.4211327 72.3877206,32.7490187 70.7355211,32.4998798 L70.57264,32.4750461 C70.8783554,33.6670672 71.0303778,34.8999439 71.0303778,36.1744773 M70.3070184,41.9879837 L69.8643158,42 C69.9428329,41.3246816 70.0046442,40.7142514 70.0489145,40.1687094 C70.0923494,39.6223664 70.1149022,39.1409116 70.1149022,38.7243451 C70.1149022,38.2997677 70.0848318,37.7870704 70.0263617,37.1862533 L69.9678915,36.5878395 C69.830069,35.2708484 69.4316367,33.8256829 68.7725945,32.250741 L68.8026649,32.250741 L68.8903701,32.0889209 C69.0774746,32.0544741 69.2695908,32.0320436 69.4658835,32.0200272 C69.6630114,32.0072098 69.8593041,32.0008011 70.0555968,32.0008011 C71.4137749,32.0008011 72.6433187,32.3420652 73.7450634,33.0261956 C74.6897741,33.6005768 75.2602757,34.2086037 75.4565684,34.8502764 C75.2109937,35.2916767 74.7390561,35.7218617 74.0399201,36.1384283 C73.1745618,36.6471201 72.2248395,36.9387167 71.1915883,37.013218 L71.0295425,37.0252343 L71.0145073,37.4498117 C70.976084,38.8837619 70.7405328,40.3954178 70.3070184,41.9879837 M59.681321,42 L59.2386184,41.9503325 C59.8784489,39.950012 60.1975289,38.024994 60.1975289,36.1744773 C60.1975289,34.9255788 60.0404948,33.5340864 59.7255912,32.0008011 L61.7177529,32.3885284 C61.7971052,33.5797485 61.7369645,34.8086197 61.5415071,36.0759433 L61.4521313,36.637507 L61.555707,36.511736 C62.9030264,34.8871265 64.546873,33.5420973 66.484741,32.4750461 L67.5914974,33.2993671 C65.74217,34.041176 64.1718287,34.9327886 62.8838148,35.975006 L62.573923,36.2249459 L62.8395445,36.7496595 C63.6556208,38.3574461 65.013799,39.8658976 66.9124084,41.275014 L65.7020762,41.7620764 C64.1283938,40.2287912 63.0308255,38.5408956 62.4110418,36.699992 L62.321666,36.4372346 L62.2331255,36.511736 C61.9875509,36.7216214 61.78207,36.9082753 61.6150125,37.075703 L61.2900855,37.4001442 L61.1272043,38.0882801 C60.9893818,38.6458383 60.8006068,39.2498598 60.5592085,39.9003445 C60.3178103,40.550028 60.0254596,41.2501802 59.681321,42 M41.9423117,42 L41.4561741,41.9879837 C41.6917253,40.8384203 41.8103362,39.7833854 41.8103362,38.8244813 C41.8103362,38.2917568 41.7961363,37.9120404 41.7660659,37.6869342 L41.7209604,37.3496756 L41.470374,37.3248418 C40.9992716,37.2831851 40.6066863,37.237523 40.2967945,37.1870544 C39.987738,37.1373868 39.7538574,37.0877193 39.5959879,37.0372507 L39.5817881,36.6871746 C40.0244906,36.7456541 40.4813931,36.7833053 40.9541661,36.7993271 L41.6624902,36.8241609 L41.61822,36.4997196 C41.470374,35.3821998 41.0719417,33.8833614 40.422923,32 L42.0467227,32.1506048 C42.4501667,33.2993671 42.6514711,34.6540095 42.6514711,36.2121285 L42.6514711,36.8497957 L43.6847223,36.8497957 C44.5793156,36.8497957 45.4947911,36.7704879 46.4294783,36.6118721 L47.4326591,36.4500521 L47.4326591,36.2121285 C47.4326591,34.6708323 47.6347988,33.31619 48.0382428,32.1506048 L49.6620425,32 C49.376374,32.8002884 49.1424934,33.5252744 48.9604007,34.1749579 C48.7791432,34.8238404 48.648003,35.3990227 48.5694859,35.8997036 L48.5093452,36.2505808 L48.5243804,36.2505808 C48.7707903,36.1921013 49.0706587,36.1175999 49.4248207,36.0254746 C49.7789828,35.9341504 50.1974621,35.8260034 50.6794232,35.7010334 L50.5908827,36.9138829 C50.1373213,37.0716975 49.4649146,37.2006729 48.5686506,37.3008091 L48.3623345,37.3256429 L48.3180643,37.6877353 C48.2879939,37.9296643 48.273794,38.3133862 48.273794,38.8372987 C48.273794,39.7881919 48.3915696,40.8384203 48.6279561,41.9879837 L48.1409832,42 C47.6782337,41.0258752 47.4476943,39.583113 47.4476943,37.6749179 L47.4476943,37.4001442 L46.9899565,37.4377954 C46.7343584,37.4546183 46.4411723,37.4690379 46.1120689,37.4810542 C45.7829655,37.4938717 45.4212858,37.4962749 45.0278652,37.4874629 C44.7421967,37.4874629 44.4197756,37.4810542 44.0614371,37.4690379 C43.7022633,37.4562205 43.3113486,37.4418008 42.8878576,37.424978 L42.6372712,37.4129616 L42.6372712,37.6749179 C42.6356006,39.5999359 42.4050612,41.041897 41.9423117,42 M36.3792942,40.9497717 L36.8512319,41.0258752 L36.8813022,40.9001041 C37.2454878,39.4333093 37.4267453,38.1083073 37.4267453,36.924297 C37.4267453,35.8420252 37.2947698,34.7709685 37.0283129,33.7119282 L36.8662671,33.0622447 L36.7927617,33.0878795 C36.370106,33.1711928 35.9457798,33.2312745 35.5239594,33.2689257 C35.1004684,33.3065769 34.6778127,33.325002 34.2551571,33.325002 C33.9895355,33.325002 33.7331021,33.3193944 33.4875275,33.3065769 C33.2419528,33.2945606 33.0055664,33.2705279 32.7800386,33.2376832 L32.5879224,33.2128495 L32.5436521,33.4123208 C32.4943702,33.6374269 32.4325589,33.9170071 32.3590535,34.2494593 C32.2847129,34.5827125 32.2087017,34.9664344 32.1301846,35.3990227 C32.0424794,36.0326845 31.9973739,36.6495234 31.9973739,37.2503405 C31.9973739,38.0418169 32.1402081,39.1409116 32.4258766,40.550028 L32.5135818,40.961788 L32.8234736,40.9121205 C33.3254816,40.8456301 33.8809481,40.8127854 34.4915435,40.8127854 C34.826494,40.8127854 35.1489151,40.8248017 35.4588069,40.8504366 C35.7661929,40.8752704 36.0744141,40.9089161 36.3792942,40.9497717 M31.3909548,42 L31.4794954,41.1244092 C31.5187539,41.1171994 31.577224,41.1059841 31.6557411,41.0939678 C31.7350935,41.0819515 31.8286457,41.0667308 31.9363978,41.050709 L32.0408088,41.0370904 L31.951433,40.8248017 C31.2130385,39.0495874 30.8446765,37.1245694 30.8446765,35.0497477 C30.8446765,34.774974 30.8588764,34.444124 30.8889468,34.0571978 C30.9190172,33.6694705 30.9582757,33.2216615 31.0067224,32.7137707 L32.7190626,32.788272 C34.4113559,32.8635745 36.1328843,32.6016182 37.8836477,32.0008011 L37.8251776,32.8755908 L37.6472613,32.913242 C37.6171909,32.922054 37.5812735,32.9300649 37.536168,32.9380758 C37.4918977,32.9460867 37.4359334,32.9597052 37.3674398,32.9765281 L37.3231696,32.9877433 L37.4701802,33.3626532 C38.0899638,34.9375951 38.3998557,36.5918449 38.3998557,38.3246015 C38.3998557,38.5328847 38.3773029,38.8813586 38.3330326,39.3684211 C38.2887624,39.8570856 38.2277864,40.4915485 38.148434,41.275014 L38.1191989,41.5489866 L38.1041637,41.5489866 L37.2772287,41.4993191 C36.9339254,41.4824962 36.616516,41.4688777 36.3258358,41.4560602 C36.0368262,41.4432428 35.7728752,41.4368341 35.5364887,41.4368341 C34.072229,41.4376352 32.6898275,41.6250901 31.3909548,42 M21.1194194,42 L20.7059519,41.874229 C21.0116673,38.4327485 22.206129,35.1418729 24.2926782,32 L25.7828318,32.3004086 C25.6942913,32.3917328 25.6107625,32.483858 25.5314102,32.5751822 C25.4528931,32.6665064 25.3793878,32.7586317 25.3100589,32.8499559 L25.014367,33.2248658 L25.148013,33.6494432 C26.0918884,36.6743571 27.5970772,39.2827045 29.6627442,41.4736842 L28.1876257,41.8109429 C27.4099727,40.719859 26.8202594,39.8074181 26.4168153,39.0736201 C25.5999038,37.5900024 25.0243904,36.0030441 24.68944,34.3111432 L24.5866995,33.8112633 L24.4538888,33.9987183 C22.9395118,36.1336217 21.8285789,38.7996475 21.1194194,42 M12.3238378,36.9627493 L11.8961704,37.9248578 L12.3530729,37.9248578 C13.2785719,37.9248578 14.163977,37.8495554 15.0092884,37.6989506 L15.3642858,37.6364656 L15.0393588,36.7865097 C14.9416301,36.5525915 14.8522543,36.3090603 14.7737372,36.055916 C14.6952201,35.8011696 14.6167031,35.5368101 14.538186,35.2620364 C14.4989275,35.1042217 14.4546572,34.9079548 14.40454,34.6740367 C14.3560933,34.4409197 14.2909408,34.166146 14.2124237,33.8497156 L14.1982238,33.7864295 L13.9910724,34.0740207 C13.6477691,34.5650885 13.3378773,35.0537531 13.0622323,35.536009 C12.7865873,36.0206681 12.5410126,36.4965153 12.3238378,36.9627493 M10.7000381,42 L10.2573355,41.8878475 C10.2080535,41.337499 10.3851345,40.3040936 10.7885786,38.7876312 L10.8771191,38.4503725 L10.8629192,38.4503725 C9.97751405,38.4503725 9.15057902,38.33822 8.38378472,38.1139149 L8.36874954,37.7638388 C8.77302889,37.8054955 9.19568457,37.8407434 9.63838716,37.8703837 C10.0810898,37.8984219 10.543004,37.917648 11.0249651,37.92646 L11.2170813,37.326444 C11.9947343,34.8935352 12.8559162,33.119122 13.7997915,32.0024033 L15.3350507,32.2899944 C15.2657218,32.3733077 15.1947223,32.465433 15.1203817,32.563967 C15.0468764,32.6641032 14.9608417,32.7722503 14.8622777,32.8900104 L14.6551263,33.163983 L14.6701615,33.2136506 C14.8271956,33.7559881 14.9650181,34.2118081 15.0827937,34.5827125 C15.2014046,34.9536169 15.2991333,35.2428102 15.3776504,35.4518946 C15.5154729,35.8356164 15.660813,36.1913002 15.8136707,36.5205479 C15.9656931,36.8497957 16.1260683,37.147801 16.2931259,37.4145638 L16.322361,37.4770488 L16.3666313,37.4770488 C16.7809341,37.4017464 17.2177896,37.30882 17.6805391,37.1950653 C18.1432886,37.0829128 18.6302615,36.9555395 19.1414577,36.8137467 L19.0529172,37.988945 C18.5609326,38.1467596 17.9119139,38.2725306 17.1050258,38.3638548 L16.8836745,38.3886886 L16.8836745,38.401506 C17.2278131,38.9846992 18.0104779,40.021309 19.2299982,41.5137387 L17.6805391,41.8133462 C17.021497,41.0378915 16.4468189,40.0958103 15.953999,38.9879035 L15.7326477,38.4888248 L15.556402,38.5000401 C15.3200155,38.517664 15.0736056,38.5304815 14.8180075,38.5384923 C14.5632447,38.5473043 14.2967878,38.5505087 14.0211428,38.5505087 C13.6076753,38.5505087 13.2610308,38.5481054 12.9803741,38.5441 C12.6997173,38.5400945 12.4867189,38.5336858 12.338873,38.5248738 L11.6748191,38.4880237 L11.5119379,38.938236 C11.3540685,39.3796363 11.2070578,39.8570856 11.0692353,40.3689818 C10.9322481,40.880878 10.8086255,41.4256188 10.7000381,42 M0.414302802,42 L0.517043214,41.0995754 L0.900440364,41.0370904 L0.841134922,40.8752704 C0.280656737,39.341184 0,37.6084275 0,35.6761996 C0,34.8502764 0.0877052302,33.8633341 0.265621554,32.7137707 L0.309891814,32.4261796 L0.324926996,32.1634223 C1.64301131,32.3636946 2.79403805,32.4646319 3.7780072,32.4646319 C5.09692681,32.4646319 6.33148234,32.3100216 7.48167378,32.0016022 L7.31962793,32.9012257 C6.77836137,32.9677161 6.29389438,33.0181847 5.86622697,33.0518305 C5.43855956,33.0838741 5.06685644,33.1006969 4.75278819,33.1006969 C3.93671191,33.1006969 3.05047144,33.0181847 2.09573736,32.8515581 L1.96376187,32.8267243 L1.86018617,33.1896179 C1.32894306,35.0481455 1.06332151,36.61027 1.06332151,37.8767924 C1.06332151,38.7347593 1.15186202,39.6303773 1.32894306,40.5636466 L1.4024484,40.9513739 L1.56449425,40.9265401 C1.87939779,40.8848834 2.20432479,40.8512377 2.53927524,40.8264039 C2.87422569,40.8015701 3.21335258,40.7887527 3.5574912,40.7887527 C4.8555286,40.7887527 6.12516622,40.9553793 7.36556876,41.2886325 L7.36556876,41.5505888 C6.18447166,41.4760875 5.28904303,41.4384363 4.67928286,41.4384363 C3.16407059,41.4376352 1.74241057,41.6250901 0.414302802,42" id="salon" fill="#EC1C24" fill-rule="nonzero"></path>
                    <path d="M108.990077,13.3998269 L107.998637,15.998485 L109.059345,15.998485 C111.202458,15.998485 113.254605,15.7956344 115.216622,15.390768 L116.037815,15.222978 L115.28422,12.9281783 C115.056389,12.2979223 114.851091,11.6384492 114.66916,10.9530979 C114.486395,10.2669119 114.303629,9.55317833 114.121698,8.81022755 C114.029898,8.38282216 113.928084,7.8527393 113.813751,7.22331808 C113.699418,6.59389686 113.550869,5.8501113 113.369773,4.9961353 L113.335556,4.82584096 L112.856527,5.60385234 C112.058701,6.93114643 111.340158,8.24758842 110.702565,9.55317833 C110.062468,10.8562639 109.492474,12.1393149 108.990077,13.3998269 M105.22878,27 L104.201455,26.6961415 C104.088791,25.2119095 104.497718,22.4212528 105.433244,18.3275105 L105.639377,17.4159349 L105.60516,17.4159349 C103.552178,17.4159349 101.637731,17.1120764 99.8584794,16.5043594 L99.8242631,15.558558 C100.758954,15.6712528 101.739545,15.767252 102.765202,15.845721 C103.790858,15.9250247 104.863249,15.9742765 105.980706,15.9976503 L106.425519,14.3781845 C108.226468,7.80849617 110.221867,3.0143767 112.41088,0.000834776156 L115.968548,0.775507049 C115.809149,1.00173139 115.643909,1.24965991 115.472828,1.52012738 C115.301746,1.78976008 115.101455,2.08109696 114.873624,2.39747712 L114.396264,3.13959312 L114.43048,3.27315731 C114.794342,4.73651991 115.114807,5.96781474 115.387704,6.96871135 C115.661435,7.97044274 115.889266,8.752628 116.072031,9.31526713 C116.391662,10.34872 116.72715,11.3120517 117.081831,12.2002535 C117.434844,13.0892901 117.806217,13.8931796 118.192612,14.6135914 L118.261879,14.7822162 L118.364528,14.7822162 C119.321752,14.5793656 120.336559,14.3264284 121.40895,14.0225699 C122.480507,13.7187114 123.608812,13.3764531 124.794702,12.9932909 L124.589404,16.1654403 C123.449414,16.5928457 121.943894,16.93093 120.074512,17.1788585 L119.561266,17.2464754 L119.561266,17.2798664 C120.359926,18.855089 122.171725,21.6565978 125,25.683558 L121.40895,26.4949604 C119.880897,24.4013418 118.546459,21.8586137 117.40647,18.8676107 L116.893224,17.5169429 L116.482628,17.5511687 C115.936,17.5954118 115.365171,17.6304724 114.772644,17.6521766 C114.180116,17.6747156 113.564222,17.6855676 112.925794,17.6855676 C111.968571,17.6855676 111.164903,17.680559 110.514792,17.6688721 C109.863847,17.65802 109.369796,17.6404897 109.026797,17.6179508 L107.487895,17.5169429 L107.11235,18.7323769 C106.746819,19.9244373 106.404655,21.2133317 106.085859,22.5973906 C105.763724,23.9806146 105.479144,25.4481511 105.22878,27 M87.6666029,12.5208076 L88.5896103,12.3872434 C90.8019907,12.094237 92.6588546,11.3170604 94.1652094,10.0573831 L95.1574841,9.24848504 L94.8144859,8.57315113 C93.2188347,5.49032278 90.9613889,3.35246104 88.0421484,2.16040069 L87.357821,1.88993322 L87.4604701,2.73472669 C87.5748028,3.76817957 87.6666029,4.78076305 87.7333665,5.77164234 C87.8026338,6.76001731 87.8368502,7.72919243 87.8368502,8.67415904 C87.8368502,9.12410339 87.8193247,9.67088177 87.7851083,10.3103203 C87.7525611,10.9522632 87.7116683,11.6885357 87.6666029,12.5208076 M85.9224026,23.9622496 L85.6486716,24.974833 L86.4690299,24.9072162 C89.6620014,24.6375835 92.2833091,23.4555404 94.3362912,21.3627566 L94.4731567,21.1958014 L94.1652094,20.5538585 C92.8424546,17.7865756 90.707687,15.7864519 87.769252,14.5459745 L87.5289028,14.4449666 L87.4946865,14.4449666 L87.3928719,15.692957 C87.2785392,17.0436248 87.0966082,18.4118229 86.84541,19.7942122 C86.5950463,21.1791059 86.2862645,22.5690082 85.9224026,23.9622496 M85.1012097,27 L84.108935,26.966609 C84.428566,24.9873547 84.6739224,23.1591949 84.8441697,21.4821296 C85.0160861,19.8058991 85.1012097,18.2707457 85.1012097,16.8758348 C85.1012097,15.6604007 85.0669933,14.6252783 84.9985606,13.7704675 L84.7248296,10.3946327 C84.6104969,8.86532278 84.3876732,7.23417017 84.0571932,5.50117487 C83.7275477,3.76984912 83.276893,1.93584591 82.7060639,0.00166955231 C83.6190567,0.0901558249 85.0661588,0.394014346 87.0507082,0.912410339 L87.1875737,0.945801385 L87.2217901,0.945801385 L88.3509303,1.31727677 C92.4109946,2.62203191 95.2484496,4.5687299 96.8683026,7.15570121 L97.3815481,7.96626886 L96.8349208,8.60737695 C96.7431207,8.72007173 96.6346298,8.84946203 96.509448,8.99471308 C96.3842661,9.14163369 96.2415588,9.30358026 96.0821606,9.48472669 L95.5689151,10.0248269 L95.328566,10.2610685 C93.2538856,12.3087744 91.2593216,13.5717907 89.343205,14.0401002 L89.207174,14.074326 L89.7880178,14.3439587 C92.7531583,15.7171655 94.8378532,17.3600049 96.0471097,19.2716423 L96.1497588,19.4068761 L96.4927571,19.9469763 L96.3558916,20.08221 C96.0137279,20.5546933 95.7616951,20.8694039 95.6031315,21.0263418 L94.816155,21.8703005 L94.816155,21.9045263 C93.3573693,23.6149827 91.6014853,24.918903 89.5493377,25.8187917 C88.7732103,26.1785803 88.0154429,26.4557259 87.2743664,26.6460549 C86.5324554,26.8363839 85.8080698,26.9557569 85.1012097,27 M63.5699334,13.3998269 L62.5768241,15.9976503 L63.6375316,15.9976503 C65.7806447,15.9976503 67.8327923,15.7947997 69.794809,15.3899332 L70.6160018,15.2221432 L69.8632417,12.9273436 C69.6345762,12.2970876 69.429278,11.6376144 69.2465125,10.9522632 C69.0645816,10.2677467 68.8826506,9.55234356 68.7007197,8.80939278 C68.6089197,8.38198739 68.5062706,7.85190453 68.3927724,7.2224833 C68.2784396,6.59306208 68.1298905,5.84927653 67.9479596,4.99530052 L67.9137432,4.82500618 L67.4355486,5.60301756 C66.6368884,6.93031165 65.9191792,8.24758842 65.2799173,9.55234356 C64.6423245,10.8562639 64.0723298,12.1393149 63.5699334,13.3998269 M59.8069673,27 L58.7804762,26.6961415 C58.666978,25.2119095 59.0767399,22.4212528 60.0122655,18.3275105 L60.2175637,17.4159349 L60.1833474,17.4159349 C58.1320343,17.4159349 56.2150831,17.1120764 54.4366664,16.5043594 L54.4032846,15.558558 C55.3371411,15.6712528 56.3177322,15.767252 57.3442233,15.845721 C58.3707143,15.9250247 59.4431054,15.9742765 60.560562,15.9976503 L61.0045402,14.3781845 C62.8054896,7.80849617 64.8017227,3.0143767 66.9899012,0.000834776156 L70.5475691,0.775507049 C70.3873363,1.00173139 70.2229309,1.25049468 70.0510145,1.52012738 C69.8807672,1.78976008 69.6804762,2.08109696 69.4526453,2.39747712 L68.9736161,3.13959312 L69.0078325,3.27315731 C69.3725289,4.73651991 69.6921599,5.96781474 69.9650563,6.96871135 C70.2387872,7.97044274 70.4674527,8.752628 70.6493837,9.31526713 C70.9681801,10.34872 71.3053365,11.3120517 71.6591838,12.2002535 C72.0121966,13.0884554 72.3827349,13.8931796 72.769964,14.6135914 L72.8383968,14.7822162 L72.9418804,14.7822162 C73.8991042,14.5793656 74.9139116,14.3264284 75.9854682,14.0225699 C77.0578593,13.7203809 78.1861649,13.3764531 79.3720542,12.9932909 L79.166756,16.1654403 C78.0267667,16.5928457 76.5204119,16.9325996 74.6526989,17.1788585 L74.1394533,17.2464754 L74.1394533,17.2798664 C74.9372789,18.855089 76.7490774,21.6565978 79.5773524,25.683558 L75.9854682,26.4949604 C74.4582498,24.4013418 73.1238113,21.8586137 71.9838221,18.8676107 L71.4705765,17.5169429 L71.0599801,17.5511687 C70.5133527,17.5954118 69.9425235,17.6304724 69.3491616,17.6521766 C68.7557997,17.6747156 68.1407396,17.6855676 67.5023122,17.6855676 C66.5442539,17.6855676 65.7405865,17.6788894 65.09131,17.6688721 C64.4420335,17.65802 63.9463135,17.6404897 63.6033152,17.6179508 L62.0644131,17.5169429 L61.6888676,18.7323769 C61.3241712,19.9244373 60.9820075,21.2133317 60.6632111,22.5973906 C60.3427456,23.9806146 60.0581655,25.4481511 59.8069673,27 M42.7446826,27 L41.717357,26.9323831 C42.2873517,24.2560908 42.7113008,21.7684578 42.9825281,19.474493 C43.25459,17.1813628 43.3931246,15.0977616 43.3931246,13.2312021 C43.3931246,10.0365137 43.0743282,6.99876329 42.4350662,4.117116 L42.1613353,2.80150878 L40.7584641,2.43086817 L40.7926805,1.72130843 L41.9577061,1.88993322 L41.5804915,0.506709127 L45.7540541,0.00166955231 C45.7765868,0.15860747 45.8066304,0.395683898 45.8400123,0.710394509 C45.871725,1.02260079 45.9134523,1.4074326 45.9593523,1.85737695 L45.9927341,2.36408607 L47.6701707,2.43170294 C51.2954368,2.56526713 55.2745502,2.04854069 59.6066764,0.878184516 L59.1618636,4.08455973 C58.1353725,4.19641974 57.1714723,4.28824512 56.2718322,4.35502721 C55.3738611,4.42013975 54.5334737,4.45603512 53.7581808,4.45603512 C51.7978332,4.45603512 49.5287038,4.25318452 46.951627,3.84831808 L46.0962177,3.71308434 L46.0962177,4.18556765 C46.0962177,4.47523497 46.1145778,4.92434455 46.1479596,5.51953995 C46.1796723,6.11390057 46.1988669,6.55967104 46.1988669,6.85184269 C46.1988669,13.2186804 45.0471939,19.9352894 42.7446826,27 M28.8261312,24.1651002 L29.921055,24.3679508 L29.9903223,24.0307012 C30.8340479,20.0696884 31.2554935,16.4926725 31.2554935,13.2979842 C31.2554935,10.3729285 30.9467116,7.48042914 30.3316515,4.62382513 L29.9552714,2.86829087 L29.7850241,2.93590774 C28.8035985,3.16046253 27.8221729,3.32491343 26.8432509,3.42508657 C25.8634944,3.52442493 24.8820688,3.57701583 23.9014777,3.57701583 C23.2864176,3.57701583 22.6930557,3.56032031 22.123061,3.52776404 C21.5530664,3.49353821 21.0056045,3.43259955 20.4815098,3.34244373 L20.0375316,3.27315731 L19.9348825,3.81325748 C19.8205497,4.42013975 19.6761733,5.17561217 19.505926,6.07466609 C19.3373478,6.97288523 19.1587551,8.00967722 18.9759896,9.17919861 C18.7706914,10.889655 18.6680423,12.5550334 18.6680423,14.1753339 C18.6680423,16.3131956 18.9993569,19.2833292 19.6594824,23.0857346 L19.8656152,24.1984912 L20.5833244,24.064927 C21.7458464,23.8846154 23.0343848,23.7944596 24.4489396,23.7944596 C25.2233979,23.7944596 25.9719853,23.8295202 26.68886,23.8963023 C27.4049001,23.9614148 28.1192711,24.0532402 28.8261312,24.1651002 M17.2651711,27 L17.4704693,24.639253 C17.5622694,24.6150445 17.6999694,24.5858274 17.8810658,24.5532711 C18.0613276,24.5215496 18.2808131,24.4806456 18.5311768,24.4355676 L18.7706914,24.4013418 L18.5645586,23.8278506 C16.8554092,19.0354007 16,13.8380843 16,8.23423201 C16,7.492116 16.0342164,6.59807074 16.1034837,5.55126144 C16.1710818,4.50445214 16.2628819,3.29569627 16.3772146,1.92332426 L20.3446444,2.12617487 C24.2661741,2.3281907 28.2569711,1.61946574 32.3153664,0 L32.1785009,2.36241652 L31.7679044,2.46425921 C31.6994717,2.48596339 31.612679,2.5101719 31.5108644,2.53187608 C31.4098844,2.55191071 31.2771916,2.58780608 31.1177934,2.632884 L31.0151443,2.66710982 L31.3564735,3.67885852 C32.7927264,7.93037349 33.5112702,12.3980955 33.5112702,17.0770158 C33.5112702,17.6404897 33.4595284,18.5796129 33.3568793,19.8952201 C33.2550647,21.2124969 33.1123574,22.9279619 32.9295919,25.0424499 L32.8611592,25.7845659 L32.8277774,25.7845659 L30.9124952,25.6510017 C30.1138351,25.6042543 29.3769313,25.564185 28.7059567,25.5324635 C28.0333129,25.500742 27.4232601,25.4815422 26.8749636,25.4815422 C23.4791976,25.4815422 20.2745425,25.9882513 17.2651711,27" id="ogava" fill="#BE8714" fill-rule="nonzero"></path>
                    <g id="left" fill="#D0021B">
                        <path d="M0.194503448,25.9255429 L0.194503448,25.8332899 C0.33237931,25.1595141 1.40666207,25.483223 1.91384828,25.3431963 C4.06897931,25.399207 6.2914069,25.3217804 8.42109655,25.509581 C11.3591655,25.6660815 12.9939793,26.5622528 8.56307586,26.4263444 C6.93154483,26.5507212 4.02466207,26.0688644 2.62292414,26.6841584 C1.65204828,26.6841584 0.496517241,27.0449333 0.194503448,25.9255429" id="Shape"></path>
                        <path d="M1.01847586,22.4067527 C3.21217931,21.4306838 6.28812414,22.3268551 8.68207586,22.0204436 C9.06615862,22.0204436 11.199131,21.8697089 11.2959724,22.3589789 C11.3960966,22.3589789 11.7260138,23.2246738 10.2298966,23.2246738 C9.91967586,22.8029461 3.83426207,23.02946 3.28275862,23.2320869 C2.65164828,23.2469133 0.514572414,23.7625412 1.01847586,22.4067527" id="Shape"></path>
                        <path d="M1.89086897,18.7751175 L1.91302759,18.7751175 C1.93846897,18.8508967 3.55768966,18.9760971 3.58723448,18.8887863 C5.31396552,19.0469342 7.12276552,18.7965334 8.8453931,18.8772547 C9.19993103,18.8335993 10.8257172,18.8113597 10.8257172,18.8657231 C10.9791862,18.8352467 6.45308276,20.20998 1.84244828,19.9480476 C1.53304828,19.7421259 1.83506207,19.2890981 1.67831034,19.3558167 C1.65861379,19.0699974 1.88102069,18.7858254 1.89086897,18.7751175" id="Shape"></path>
                        <path d="M3.31394483,15.5841548 C3.73988276,15.825495 7.2910069,15.5742705 7.95084138,15.5594441 C8.65909655,15.5890969 9.10062759,15.6138075 9.80477931,15.5034334 C10.2520552,15.1500718 11.339469,15.9210427 10.8880897,16.5140972 C10.8782414,16.4943287 10.8839862,16.5594 10.8298207,16.6022317 C10.6665034,16.7290794 10.2733931,16.9580644 9.79985517,16.5346893 C9.32631724,16.3946626 8.68535862,16.4729128 8.2668069,16.5124498 C5.74236552,16.5239814 3.58148966,16.7570848 1.46493103,15.499315 C0.899475862,15.2159667 -0.185475862,14.3428587 1.07346207,14.3313271 C1.68897931,14.5430146 2.52854483,15.3864699 3.31394483,15.5841548" id="Shape"></path>
                        <path d="M3.96393103,12.6279427 C3.20315172,12.3923683 3.27455172,11.7877822 4.2364,11.6263396 C4.75015172,11.438539 4.8231931,11.4055915 5.6644,11.0662325 C6.39153103,10.6066153 7.03987586,10.3553908 7.88354483,9.71785718 C9.6710069,8.68742496 7.42888276,10.8891398 7.12604828,11.3018069 C6.96929655,11.401473 6.95370345,11.5851552 6.30946207,11.9492248 C5.474,12.3363576 4.82565517,12.5834636 3.96393103,12.6279427" id="Shape"></path>
                        <path d="M3.30984138,7.39917876 C3.30737931,7.40412088 6.03863448,7.22126241 6.70831724,7.34811018 C7.94263448,7.51037648 9.08011034,7.32257589 10.3144276,7.32257589 C10.4974414,7.25173882 11.2606828,7.20067023 11.4002,7.29621791 C12.1224069,7.44859997 11.9508828,8.81262535 11.0940828,8.81262535 C8.65581379,8.01447282 7.89585517,8.40654775 6.32915862,8.30688164 C5.1728069,8.39501613 0.57202069,8.866165 0.521958621,7.6158084 C0.319248276,7.24514932 1.13829655,5.01625277 1.49857931,4.85563384 C2.70745517,4.85563384 0.164137931,7.69900076 3.30984138,7.39917876" id="Shape"></path>
                        <path d="M2.48012414,3.07729398 C2.48751034,3.0698808 2.49489655,3.06246762 2.50228276,3.05505444 C2.9905931,3.07482292 3.24746897,3.16131004 3.61349655,3.49737426 C3.82523448,3.61516148 3.94997931,3.8079042 4.12150345,3.9454599 C5.70953793,5.21311392 10.508931,6.72457925 7.98695172,6.27319887 C6.95698621,5.8333501 2.30613793,4.5640487 2.48012414,3.07729398" id="Shape"></path>
                        <path d="M3.65863448,0.00576580778 C5.13915862,-0.0230632311 6.67877241,0.0584817647 8.1634,0.0873108036 C10.6394207,0.0131789892 13.5364552,1.00819268 9.55446897,1.00819268 C7.58153103,0.838513189 5.59710345,1.05267176 3.62498621,1.00242687 C-0.787862069,0.829452634 0.207634483,0.131789892 3.65863448,0.00576580778" id="Shape"></path>
                    </g>
                </g>
            </g>
        </g>
    </g>
</svg>