<?xml version="1.0" encoding="UTF-8"?>
<svg width="188px" height="63px" viewBox="0 0 188 63" version="1.1" xmlns="http://www.w3.org/2000/svg" xmlns:xlink="http://www.w3.org/1999/xlink">
    <!-- Generator: Sketch 49.3 (51167) - http://www.bohemiancoding.com/sketch -->
    <title>logo_full</title>
    <desc>Created with Sketch.</desc>
    <defs></defs>
    <g id="Services" stroke="none" stroke-width="1" fill="none" fill-rule="evenodd">
        <g id="iPhone-8" transform="translate(-87.000000, -4601.000000)">
            <g id="Футер" transform="translate(30.000000, 4596.000000)">
                <g id="Левая" transform="translate(38.000000, 0.000000)">
                    <g id="logo_full" transform="translate(19.000000, 5.000000)">
                        <path d="M177.131123,61.8975213 L177.041969,62.1813639 L177.662283,62.0680705 C178.22358,61.9413768 178.715813,61.8183378 179.137727,61.6965169 C179.559641,61.5771325 179.903702,61.4650573 180.16991,61.363946 C181.100381,60.9582826 181.989415,60.3369962 182.831988,59.5013052 L183.209952,59.1394973 L183.209952,59.1212242 C182.824453,58.8422544 182.472858,58.6047038 182.155167,58.407354 C181.837476,58.2112224 181.552432,58.0492007 181.301293,57.922507 C180.428584,57.5558263 179.490578,57.314621 178.483509,57.2001094 L177.752693,57.1416354 L177.708744,57.9980359 C177.679863,58.7728165 177.615822,59.4842503 177.520389,60.1359918 C177.422445,60.791388 177.293108,61.3785645 177.131123,61.8975213 M186.381843,62.8672153 L185.738926,62.8477239 C185.029457,60.072645 184.672839,57.3292395 184.672839,54.6175074 C184.672839,52.2748925 184.940303,50.0504438 185.471463,47.9465977 L187.913793,47.8893419 C186.655585,50.9178082 186.027736,54.1740795 186.027736,57.659374 C186.027736,58.4183179 186.055362,59.2332994 186.115635,60.1006638 C186.174653,60.9680282 186.262552,61.8914303 186.381843,62.8672153 M176.264692,62.8294508 L176.198141,62.8294508 L174.423841,63 C174.777947,61.9474679 175.076803,61.0033563 175.32292,60.1664471 C175.566525,59.330756 175.747345,58.6083584 175.866637,58.0004724 L176.065037,57.0685429 L176.220743,56.1573229 C176.32371,55.561619 176.397796,54.9720061 176.441746,54.3897024 C176.486951,53.8073988 176.509553,53.2372772 176.509553,52.6793377 C176.509553,51.1334311 176.331244,49.5119956 175.975882,47.813813 L176.685351,47.7955399 C176.996764,48.4290083 177.255437,49.4876315 177.462627,50.968973 C177.565595,51.7681177 177.647215,52.57579 177.707488,53.3932079 C177.76525,54.2106258 177.787853,55.0438804 177.772785,55.8917535 L177.772785,56.0440295 L178.105544,56.0440295 C179.955186,56.0440295 181.700605,56.7725182 183.341801,58.2307138 L183.742368,58.5913035 L184.518389,59.38923 L184.208231,59.8460582 L183.875472,60.2261393 C182.942489,61.328618 181.627774,62.0753798 179.925049,62.4688611 C179.111357,62.6698655 177.89082,62.7904681 176.264692,62.8294508 M167.059178,62.8477239 L164.240138,63 C165.720605,59.5536882 166.458955,56.2133605 166.458955,52.9826716 C166.458955,52.5514258 166.452677,52.1628173 166.437608,51.8131915 C166.42254,51.466002 166.399937,51.1577953 166.369801,50.8910076 L166.259299,49.9018223 L165.350175,49.9018223 C163.308411,49.9018223 161.060714,49.6606171 158.605826,49.1794247 L158.583224,48.7433061 C160.328642,48.9321284 162.007509,49.0283669 163.618568,49.0283669 C166.946165,49.0283669 170.031413,48.6153942 172.870544,47.7931034 L172.736184,49.3134276 C172.041784,49.4389031 171.239393,49.5473237 170.330269,49.6362529 C169.419888,49.7251821 168.411564,49.800711 167.301528,49.8640579 L166.968768,49.8835492 L167.101872,50.4146881 C167.353011,51.3904731 167.541366,52.4003679 167.668191,53.446809 C167.793761,54.4920319 167.856546,55.5604008 167.856546,56.6494792 C167.857801,58.7033787 167.591594,60.7706785 167.059178,62.8477239 M154.213398,61.4029287 L154.922867,61.5186585 L154.968072,61.3273997 C155.515556,59.09686 155.788042,57.0819432 155.788042,55.281431 C155.788042,53.6356314 155.588386,52.0068866 155.189075,50.396415 L154.944214,49.4084479 L154.833713,49.4474306 C154.19833,49.5741243 153.561692,49.6654899 152.926309,49.7227457 C152.289671,49.7800015 151.654288,49.8080203 151.018905,49.8080203 C150.618338,49.8080203 150.232839,49.7994928 149.863664,49.7800015 C149.494489,49.7617284 149.139127,49.7251821 148.798833,49.6752356 L148.510023,49.6374711 L148.442215,49.940805 C148.369385,50.2831216 148.276463,50.7082764 148.165962,51.2138329 C148.054205,51.7206076 147.938681,52.3041295 147.820645,52.9619621 C147.688797,53.925565 147.622245,54.8635855 147.622245,55.7772419 C147.622245,56.9808319 147.836969,58.6522139 148.266418,60.7950426 L148.398266,61.4212018 L148.864129,61.3456729 C149.618803,61.2445616 150.453842,61.194615 151.371756,61.194615 C151.875291,61.194615 152.35999,61.2128881 152.825853,61.2518708 C153.291717,61.2896353 153.755069,61.3408 154.213398,61.4029287 M146.714376,63 L146.848736,61.6684981 C146.906498,61.6575342 146.995652,61.6404793 147.113688,61.6222062 C147.232979,61.6039331 147.373617,61.5807871 147.535602,61.5564229 L147.691308,61.5357134 L147.558204,61.2128881 C146.448168,58.5133381 145.894406,55.5859831 145.894406,52.4308232 C145.894406,52.0129776 145.915753,51.5098575 145.960958,50.9214628 C146.004907,50.3318499 146.063925,49.6508714 146.138011,48.8785272 L148.710934,48.9918206 C151.254976,49.1063322 153.842968,48.707978 156.474909,47.7943217 L156.38701,49.1246053 L156.120802,49.1818611 C156.076853,49.1952614 156.021602,49.2074435 155.953794,49.2196256 C155.887242,49.2318077 155.803111,49.2525172 155.698888,49.2780996 L155.632336,49.2951545 L155.853339,49.8652761 C156.785066,52.260274 157.250929,54.7758745 157.250929,57.4108595 C157.250929,57.7275937 157.218281,58.2575144 157.151729,58.9981851 C157.083922,59.7412923 156.993511,60.7061134 156.87422,61.8975213 L156.829015,62.3141486 L156.805157,62.3141486 L155.563273,62.2386197 C155.047181,62.2130373 154.570016,62.1923278 154.133034,62.1728364 C153.697307,62.1533451 153.301762,62.1435994 152.9464,62.1435994 C150.745163,62.1448176 148.666985,62.4298784 146.714376,63 M133.491887,63 L133.646338,61.6307337 L134.223959,61.5357134 L134.134804,61.2896353 C133.292231,58.956766 132.870317,56.3217811 132.870317,53.3834622 C132.870317,52.1274892 133.002165,50.6266564 133.269629,48.8785272 L133.336181,48.4411904 L133.358783,48.041618 C135.340273,48.3461701 137.070624,48.4996644 138.549835,48.4996644 C140.53258,48.4996644 142.3885,48.2645501 144.118851,47.7955399 L143.87399,49.163588 C143.061554,49.2646993 142.331994,49.3414464 141.689077,49.3926112 C141.04616,49.4413395 140.487375,49.4669219 140.013977,49.4669219 C138.787161,49.4669219 137.456122,49.3414464 136.020861,49.0880591 L135.821205,49.0502946 L135.666754,49.6021431 C134.866875,52.4283867 134.467564,54.8038933 134.467564,56.7298809 C134.467564,58.0345822 134.600668,59.3965393 134.866875,60.8157522 L134.977377,61.4053651 L135.222238,61.3676006 C135.695635,61.3042538 136.182846,61.253089 136.68638,61.2153246 C137.189915,61.1775601 137.699728,61.1580688 138.217075,61.1580688 C140.169684,61.1580688 142.077087,61.4114561 143.941797,61.9182309 L143.941797,62.316585 C142.166242,62.2032916 140.82139,62.1460359 139.904732,62.1460359 C137.625642,62.1448176 135.488445,62.4298784 133.491887,63 M120.712659,55.339905 L120.069743,56.8029734 L120.756609,56.8029734 C122.147921,56.8029734 123.477704,56.6884618 124.749725,56.4594386 L125.283396,56.3644184 L124.793674,55.0718992 C124.646758,54.7161823 124.513654,54.3458469 124.394363,53.960893 C124.276327,53.5735027 124.158292,53.1714939 124.040256,52.7536484 C123.981239,52.5136613 123.914687,52.2152003 123.8406,51.8594834 C123.76777,51.5049847 123.669826,51.0871392 123.55179,50.6059468 L123.530443,50.5097084 L123.21903,50.9470452 C122.702939,51.693807 122.237075,52.4369142 121.822695,53.1702757 C121.408315,53.9072918 121.039141,54.6309077 120.712659,55.339905 M118.271584,63 L117.606065,62.8294508 C117.533235,61.9925416 117.798187,60.4210526 118.404688,58.114984 L118.537792,57.6021182 L118.51519,57.6021182 C117.184151,57.6021182 115.941011,57.431569 114.788281,57.0904706 L114.764423,56.5581135 C115.37218,56.6214604 116.007563,56.6750615 116.673082,56.7201352 C117.338602,56.7627725 118.034258,56.7920095 118.757539,56.8054098 L119.045094,55.8929717 C120.214148,52.1932725 121.508771,49.4949407 122.927709,47.7967581 L125.23568,48.2340949 C125.131457,48.3607886 125.024723,48.5008826 124.912966,48.6507222 C124.802464,48.8029983 124.673128,48.9674564 124.524955,49.1465331 L124.213542,49.5631604 L124.236145,49.6386893 C124.472216,50.4634165 124.679406,51.1565771 124.857715,51.7206076 C125.034768,52.2846381 125.18294,52.7244114 125.300976,53.0423638 C125.508166,53.6258857 125.726657,54.1667703 125.955194,54.6674539 C126.184987,55.1681376 126.424825,55.6213112 126.675964,56.0269746 L126.719914,56.1219949 L126.786466,56.1219949 C127.409291,56.0074833 128.067276,55.8661711 128.761677,55.6931855 C129.456077,55.5226363 130.189404,55.3289412 130.957891,55.1133183 L130.824787,56.9004301 C130.085181,57.1404172 129.109505,57.3316759 127.896502,57.4705517 L127.563742,57.5083161 L127.563742,57.5278075 C128.079833,58.4146633 129.256421,59.991025 131.090995,62.2605474 L128.761677,62.7161574 C127.770932,61.5369316 126.905757,60.1043184 126.164896,58.4195361 L125.832136,57.6605922 L125.565928,57.6776471 C125.210566,57.7044477 124.840135,57.723939 124.455892,57.7361211 C124.071649,57.7495214 123.672337,57.7543943 123.257957,57.7543943 C122.636387,57.7543943 122.115273,57.7507396 121.693359,57.7446486 C121.271444,57.7385575 120.951242,57.7288119 120.728983,57.7154116 L119.730704,57.659374 L119.485843,58.3440072 C119.248517,59.01524 119.027514,59.7412923 118.820324,60.5197275 C118.620668,61.2981627 118.434825,62.1265445 118.271584,63 M106.780702,54.1411879 L106.780702,54.8453124 L107.357067,54.732019 C109.368693,54.3385377 110.752471,53.4906645 111.507145,52.1835268 L111.593788,52.032469 L111.372785,51.6134053 C110.500076,49.9542053 108.821209,48.9321284 106.337441,48.5532655 L106.09258,48.5155011 C106.552165,50.3281953 106.780702,52.2030182 106.780702,54.1411879 M105.693268,62.9817269 L105.027749,63 C105.145784,61.9730502 105.238706,61.0447754 105.305258,60.2151754 C105.370554,59.3843572 105.404458,58.6522139 105.404458,58.0187455 C105.404458,57.373095 105.359253,56.5934416 105.271354,55.6797852 L105.183455,54.7697835 C104.976265,52.7670487 104.377298,50.5694006 103.386553,48.1744027 L103.431758,48.1744027 L103.563606,47.9283246 C103.844882,47.8759416 104.133692,47.8418318 104.428781,47.8235587 C104.725126,47.8040673 105.020215,47.7943217 105.315303,47.7943217 C107.357067,47.7943217 109.205452,48.3132785 110.861717,49.3536285 C112.28191,50.227084 113.139551,51.1517042 113.43464,52.1274892 C113.065465,52.7987221 112.355996,53.4529001 111.304978,54.0863685 C110.004076,54.8599309 108.576348,55.3033588 107.023051,55.4166522 L106.779446,55.4349253 L106.756843,56.0805758 C106.699081,58.261169 106.344975,60.5599284 105.693268,62.9817269 M89.7195472,63 L89.0540278,62.9244711 C90.0158917,59.8826045 90.4955679,56.9552495 90.4955679,54.1411879 C90.4955679,52.2420008 90.2594969,50.1259727 89.7860991,47.7943217 L92.7809364,48.3839346 C92.9002276,50.1954106 92.8098174,52.0641424 92.5159843,53.9913482 L92.3816247,54.8453124 L92.5373311,54.6540537 C94.5627703,52.1835268 97.0339819,50.1381548 99.9471989,48.5155011 L101.610997,49.7690376 C98.8308843,50.8970987 96.470174,52.2529647 94.5338893,53.837854 L94.0680257,54.217935 L94.4673374,55.0158616 C95.6941533,57.460806 97.7359165,59.7546926 100.590116,61.8975213 L98.7706108,62.6381921 C96.4048778,60.306541 94.754892,57.7397758 93.8231648,54.9403326 L93.6888053,54.5407603 L93.5557014,54.6540537 C93.1865265,54.9732243 92.877625,55.2570669 92.6264856,55.5116724 L92.1380195,56.0050469 L91.8931586,57.051488 C91.6859686,57.8993611 91.4021811,58.8178903 91.0392847,59.8070756 C90.6763883,60.7950426 90.2368943,61.8597569 89.7195472,63 M63.052311,63 L62.3214954,62.9817269 C62.6756019,61.2335977 62.8539109,59.6292171 62.8539109,58.1710216 C62.8539109,57.3609129 62.8325641,56.7834821 62.787359,56.4411655 L62.7195513,55.9282997 L62.3428423,55.8905353 C61.6346292,55.8271884 61.0444516,55.7577505 60.578588,55.6810034 C60.1139802,55.6054745 59.762385,55.5299456 59.5250583,55.4531984 L59.5037114,54.9208413 C60.1692308,55.0097705 60.8560971,55.0670263 61.5668215,55.0913905 L62.6316525,55.129155 L62.5651006,54.6357805 C62.3428423,52.9363797 61.7438748,50.6571116 60.7681983,47.7931034 L63.2092731,48.0221266 C63.8157748,49.7690376 64.1183977,51.8290282 64.1183977,54.1984437 L64.1183977,55.1681376 L65.6716949,55.1681376 C67.0165463,55.1681376 68.3927902,55.047535 69.7979151,54.8063297 L71.3060071,54.5602516 L71.3060071,54.1984437 C71.3060071,51.8546105 71.6098858,49.79462 72.2163874,48.0221266 L74.6574623,47.7931034 C74.2280139,49.0100937 73.8764188,50.1125724 73.6026768,51.1005395 C73.3301906,52.0872884 73.1330462,52.9619621 73.0150106,53.7233424 L72.9246005,54.2569177 L72.947203,54.2569177 C73.3176336,54.1679885 73.7684288,54.0546951 74.3008443,53.9146011 C74.8332598,53.7757253 75.462364,53.6112672 76.1869011,53.4212267 L76.0537973,55.2655943 C75.3719538,55.5055814 74.3611178,55.701713 73.0137549,55.853989 L72.7035978,55.8917535 L72.6370459,56.4423837 C72.5918408,56.8102827 72.5704939,57.3938045 72.5704939,58.1905129 C72.5704939,59.6365264 72.7475472,61.2335977 73.1029094,62.9817269 L72.3708381,63 C71.675182,61.5186585 71.3286096,59.324665 71.3286096,56.4228924 L71.3286096,56.0050469 L70.6404877,56.0623027 C70.2562444,56.087885 69.8154948,56.1098128 69.3207502,56.1280859 C68.8260056,56.1475773 68.2822888,56.1512319 67.6908556,56.1378316 C67.2614072,56.1378316 66.7767082,56.1280859 66.2380142,56.1098128 C65.6980645,56.0903215 65.1103983,56.0683937 64.47376,56.0428113 L64.0970509,56.0245382 L64.0970509,56.4228924 C64.0945395,59.3502474 63.7479671,61.5430226 63.052311,63 M54.6893693,61.4029287 L55.3988381,61.5186585 L55.4440432,61.3273997 C55.9915271,59.09686 56.2640133,57.0819432 56.2640133,55.281431 C56.2640133,53.6356314 56.0656132,52.0068866 55.6650459,50.396415 L55.4214407,49.4084479 L55.3109393,49.4474306 C54.6755567,49.5741243 54.0376626,49.6654899 53.4035357,49.7227457 C52.7668973,49.7800015 52.1315146,49.8080203 51.496132,49.8080203 C51.0968204,49.8080203 50.7113214,49.7994928 50.3421465,49.7800015 C49.9729716,49.7617284 49.6176093,49.7251821 49.2785712,49.6752356 L48.9897609,49.6374711 L48.9232089,49.940805 C48.8491228,50.2831216 48.7562012,50.7082764 48.6456999,51.2138329 C48.5339429,51.7206076 48.4196745,52.3041295 48.3016389,52.9619621 C48.1697908,53.925565 48.1019831,54.8635855 48.1019831,55.7772419 C48.1019831,56.9808319 48.3167073,58.6522139 48.7461557,60.7950426 L48.8780038,61.4212018 L49.3438674,61.3456729 C50.0985413,61.2445616 50.9335797,61.194615 51.8514942,61.194615 C52.3550287,61.194615 52.8397277,61.2128881 53.3055913,61.2518708 C53.7676878,61.2896353 54.2310399,61.3408 54.6893693,61.4029287 M47.1903471,63 L47.323451,61.6684981 C47.3824688,61.6575342 47.4703676,61.6404793 47.5884031,61.6222062 C47.7076943,61.6039331 47.8483323,61.5807871 48.0103172,61.5564229 L48.1672794,61.5357134 L48.0329198,61.2128881 C46.9228837,58.5133381 46.3691213,55.5859831 46.3691213,52.4308232 C46.3691213,52.0129776 46.3904682,51.5098575 46.4356733,50.9214628 C46.4808784,50.3318499 46.5398961,49.6508714 46.6127265,48.8785272 L49.1869053,48.9918206 C51.7309473,49.1063322 54.3189387,48.707978 56.9508795,47.7943217 L56.8629808,49.1246053 L56.5955173,49.1818611 C56.5503122,49.1952614 56.4963172,49.2074435 56.4285096,49.2196256 C56.3619577,49.2318077 56.277826,49.2525172 56.1748588,49.2780996 L56.1083069,49.2951545 L56.3293095,49.8652761 C57.2610367,52.260274 57.7269003,54.7758745 57.7269003,57.4108595 C57.7269003,57.7275937 57.6929964,58.2575144 57.6264445,58.9981851 C57.5598926,59.7412923 57.4682267,60.7061134 57.3489355,61.8975213 L57.3049861,62.3141486 L57.2823835,62.3141486 L56.0392436,62.2386197 C55.5231521,62.2130373 55.0459873,62.1923278 54.6090047,62.1728364 C54.1745336,62.1533451 53.7777333,62.1435994 53.4223711,62.1435994 C51.2211344,62.1448176 49.1429559,62.4298784 47.1903471,63 M31.7490417,63 L31.1274717,62.8087413 C31.5870568,57.5753176 33.3827035,52.5709171 36.5194344,47.7931034 L38.7595978,48.2499316 C38.6264939,48.3888074 38.5009242,48.5289014 38.381633,48.6677771 C38.2635975,48.8066529 38.1530962,48.9467469 38.0488733,49.0856227 L37.6043566,49.6557442 L37.8052681,50.3013947 C39.2242057,54.90135 41.4869716,58.8678368 44.5923101,62.199637 L42.3747493,62.7125028 C41.2056955,61.0533028 40.3191734,59.6657634 39.7126718,58.5498844 C38.4846002,56.2937623 37.619425,53.8804913 37.1158905,51.3076349 L36.9614398,50.5474728 L36.761784,50.8325336 C34.4852054,54.0790592 32.8151284,58.1332571 31.7490417,63 M18.5265528,55.339905 L17.883636,56.8029734 L18.5705022,56.8029734 C19.9618144,56.8029734 21.2928532,56.6884618 22.5636185,56.4594386 L23.0972897,56.3644184 L22.6088236,55.0718992 C22.4619071,54.7161823 22.3275475,54.3458469 22.209512,53.960893 C22.0914765,53.5735027 21.973441,53.1714939 21.8554054,52.7536484 C21.7963877,52.5136613 21.7298357,52.2152003 21.6544939,51.8594834 C21.5816635,51.5049847 21.4837191,51.0871392 21.3656836,50.6059468 L21.3443368,50.5097084 L21.0329239,50.9470452 C20.5168325,51.693807 20.0509689,52.4369142 19.6365889,53.1702757 C19.2222089,53.9072918 18.853034,54.6309077 18.5265528,55.339905 M16.0854779,63 L15.4199586,62.8294508 C15.3458724,61.9925416 15.6120802,60.4210526 16.2185818,58.114984 L16.3516857,57.6021182 L16.3303389,57.6021182 C14.9993001,57.6021182 13.7561601,57.431569 12.6034303,57.0904706 L12.5808278,56.5581135 C13.1885851,56.6214604 13.8239677,56.6750615 14.4894871,56.7201352 C15.1550065,56.7627725 15.8494069,56.7920095 16.5739441,56.8054098 L16.8627544,55.8929717 C18.0318082,52.1932725 19.3264318,49.4949407 20.7453693,47.7967581 L23.0533403,48.2340949 C22.9491175,48.3607886 22.8423832,48.5008826 22.7306262,48.6507222 C22.6201249,48.8029983 22.4907881,48.9674564 22.3426159,49.1465331 L22.031203,49.5631604 L22.0538056,49.6386893 C22.2898766,50.4634165 22.4970666,51.1565771 22.6741199,51.7206076 C22.8524288,52.2846381 22.9993454,52.7244114 23.1173809,53.0423638 C23.3245709,53.6258857 23.5430621,54.1667703 23.7728547,54.6674539 C24.0013915,55.1681376 24.2424853,55.6213112 24.4936247,56.0269746 L24.5375741,56.1219949 L24.6041261,56.1219949 C25.2269518,56.0074833 25.8836813,55.8661711 26.5793374,55.6931855 C27.2749935,55.5226363 28.0070648,55.3289412 28.7755513,55.1133183 L28.6424475,56.9004301 C27.902842,57.1404172 26.9271654,57.3316759 25.7141622,57.4705517 L25.3814025,57.5083161 L25.3814025,57.5278075 C25.8987496,58.4146633 27.0753377,59.991025 28.9086552,62.2605474 L26.5793374,62.7161574 C25.5885925,61.5369316 24.724673,60.1043184 23.9838118,58.4195361 L23.6510521,57.6605922 L23.3861,57.6776471 C23.0307378,57.7044477 22.6603072,57.723939 22.2760639,57.7361211 C21.8930764,57.7495214 21.492509,57.7543943 21.078129,57.7543943 C20.456559,57.7543943 19.9354448,57.7507396 19.5135306,57.7446486 C19.0916165,57.7385575 18.7714137,57.7288119 18.5491554,57.7154116 L17.5508763,57.659374 L17.3060154,58.3440072 C17.0686887,59.01524 16.847686,59.7412923 16.640496,60.5197275 C16.4345617,61.2981627 16.2487186,62.1265445 16.0854779,63 M0.622825688,63 L0.777276413,61.6307337 L1.35364131,61.5357134 L1.26448683,61.2896353 C0.421914176,58.956766 0,56.3217811 0,53.3834622 C0,52.1274892 0.13184818,50.6266564 0.399311631,48.8785272 L0.465863569,48.4411904 L0.488466114,48.041618 C2.4699559,48.3461701 4.2003063,48.4996644 5.67951731,48.4996644 C7.6622628,48.4996644 9.51818289,48.2645501 11.2472776,47.7955399 L11.0036724,49.163588 C10.1899808,49.2646993 9.46167653,49.3414464 8.81875969,49.3926112 C8.17584285,49.4413395 7.61705771,49.4669219 7.14491565,49.4669219 C5.91809973,49.4669219 4.58580527,49.3414464 3.15054365,49.0880591 L2.95214353,49.0502946 L2.79643711,49.6021431 C1.99781385,52.4283867 1.59850222,54.8038933 1.59850222,56.7298809 C1.59850222,58.0345822 1.7316061,59.3965393 1.99781385,60.8157522 L2.10831518,61.4053651 L2.35192039,61.3676006 C2.82531814,61.3042538 3.31378426,61.253089 3.81731873,61.2153246 C4.32085321,61.1775601 4.83066617,61.1580688 5.34801332,61.1580688 C7.29936638,61.1580688 9.20802575,61.4114561 11.0727357,61.9182309 L11.0727357,62.316585 C9.29718023,62.2032916 7.9510731,62.1460359 7.03441432,62.1460359 C4.75658005,62.1448176 2.61938384,62.4298784 0.622825688,63" id="salon" fill="#EC1C24" fill-rule="nonzero"></path>
                        <path d="M163.822937,19.9457193 L162.331072,23.8138369 L163.927166,23.8138369 C167.152006,23.8138369 170.239965,23.5118926 173.192301,22.9092466 L174.427987,22.6594902 L173.294019,19.2436677 C172.951191,18.3055281 172.64227,17.3238985 172.36851,16.3037492 C172.093494,15.2823574 171.818479,14.2199609 171.544719,13.1140743 C171.406584,12.477879 171.253379,11.6888476 171.081337,10.7519505 C170.909295,9.81505337 170.685767,8.7079243 170.413263,7.4367761 L170.361776,7.183292 L169.640959,8.34136641 C168.440435,10.3170513 167.359209,12.2765828 166.399794,14.2199609 C165.436612,16.1596112 164.578915,18.0694399 163.822937,19.9457193 M158.163143,40.1896552 L156.617279,39.73736 C156.447749,37.5280721 157.063081,33.3741636 158.470808,27.2806047 L158.780986,25.9237193 L158.729499,25.9237193 C155.640283,25.9237193 152.759527,25.4714241 150.082207,24.5668338 L150.03072,23.159003 C151.437192,23.3267498 152.912732,23.4696453 154.456084,23.5864468 C155.999436,23.7044908 157.613112,23.7778024 159.294599,23.8125944 L159.963929,21.4020103 C162.673899,11.6229914 165.676466,4.48691704 168.970373,0.00124256911 L174.323757,1.1543467 C174.083904,1.49108293 173.835259,1.86012595 173.577825,2.26271834 C173.32039,2.66406816 173.019003,3.09772478 172.676176,3.56865847 L171.95787,4.67330241 L172.009357,4.87211347 C172.556877,7.05033711 173.039096,8.88312654 173.449735,10.3729669 C173.861631,11.8640498 174.204458,13.0283371 174.479474,13.8658287 C174.960437,15.4041292 175.46526,16.838054 175.998966,18.1601475 C176.53016,19.4834836 177.088982,20.6800776 177.670407,21.7524148 L177.774637,22.0034137 L177.929098,22.0034137 C179.369476,21.7014694 180.896502,21.324971 182.510178,20.8726758 C184.122598,20.4203807 185.82041,19.9109274 187.604872,19.3405881 L187.29595,24.0623507 C185.580556,24.6985461 183.315132,25.2017866 180.502188,25.5708296 L179.729884,25.6714777 L179.729884,25.7211805 C180.931664,28.0659084 183.657959,32.2359703 187.913793,38.2301237 L182.510178,39.4379009 C180.210847,36.3215375 178.202857,32.536672 176.487464,28.0845469 L175.71516,26.0740701 L175.097317,26.1250155 C174.274782,26.1908716 173.415829,26.2430595 172.524227,26.2753663 C171.632624,26.3089157 170.705859,26.3250691 169.745188,26.3250691 C168.30481,26.3250691 167.095496,26.3176137 166.117244,26.3002177 C165.137737,26.2840643 164.394316,26.2579704 163.878191,26.224421 L161.562535,26.0740701 L160.997435,27.8832507 C160.447404,29.6576394 159.932535,31.5761661 159.452827,33.6363457 C158.968097,35.6952827 158.539876,37.8797192 158.163143,40.1896552 M131.736538,18.637294 L133.125429,18.438483 C136.454498,18.0023412 139.248605,16.8455094 141.515286,14.9704726 L143.008407,13.7664231 L142.492282,12.7611847 C140.091233,8.17237701 136.694352,4.99015753 132.301638,3.21576885 L131.2719,2.81317646 L131.426361,4.07065639 C131.598402,5.60895695 131.736538,7.11619327 131.837,8.5911228 C131.94123,10.0623246 131.992717,11.5049474 131.992717,12.9115356 C131.992717,13.5812803 131.966345,14.3951631 131.914859,15.346971 C131.865883,16.3025067 131.80435,17.3984526 131.736538,18.637294 M129.111961,35.6679462 L128.700065,37.1751825 L129.934496,37.0745344 C134.739105,36.6731846 138.683505,34.9137067 141.77272,31.798586 L141.978668,31.5500722 L141.515286,30.5945365 C139.524877,26.4754199 136.312595,23.4982244 131.890999,21.6517667 L131.529335,21.5014158 L131.477848,21.5014158 L131.324643,23.3590566 C131.152601,25.3695334 130.878841,27.4061042 130.500852,29.4637986 C130.124118,31.5252208 129.65948,33.5940984 129.111961,35.6679462 M127.876275,40.1896552 L126.383154,40.1399524 C126.864117,37.1938211 127.233316,34.4725947 127.489495,31.9762734 C127.748185,29.4811946 127.876275,27.19611 127.876275,25.1197771 C127.876275,23.3105964 127.824788,21.7698107 127.721814,20.49742 L127.309918,15.4724705 C127.137877,13.1960839 126.802584,10.7681039 126.305296,8.18853041 C125.809263,5.61144208 125.131143,2.88151776 124.27219,0.00248513821 C125.646012,0.134197463 127.823532,0.586492618 130.809773,1.35812803 L131.015721,1.4078308 L131.067208,1.4078308 L132.766276,1.96077405 C138.875639,3.90290956 143.145286,6.80058072 145.582753,10.6513024 L146.355057,11.857837 L145.532522,12.8121301 C145.394386,12.9798769 145.231135,13.1724751 145.042768,13.3886821 C144.854401,13.6073743 144.639663,13.8484327 144.399809,14.1180702 L143.627505,14.9220124 L143.265841,15.2736595 C140.143976,18.3216815 137.142665,20.2016885 134.259397,20.8987698 L134.054705,20.9497151 L134.928727,21.351065 C139.390508,23.3950911 142.527443,25.8404671 144.347067,28.6859504 L144.501527,28.8872466 L145.017652,29.6911888 L144.811705,29.892485 C144.296835,30.5957791 143.91759,31.0642277 143.678992,31.2978306 L142.494793,32.554068 L142.494793,32.6050133 C140.299692,35.1510374 137.657534,37.0919304 134.569574,38.4314199 C133.4017,38.9669672 132.261453,39.3795001 131.146322,39.6628059 C130.029935,39.9461116 128.939919,40.123799 127.876275,40.1896552 M95.477187,19.9457193 L93.9828105,23.8125944 L95.5789051,23.8125944 C98.8037445,23.8125944 101.891704,23.5106501 104.84404,22.908004 L106.079726,22.6582477 L104.947013,19.2424252 C104.60293,18.3042855 104.294008,17.3226559 104.018993,16.3025067 C103.745233,15.2836 103.471474,14.2187183 103.197714,13.1128318 C103.059578,12.4766364 102.905117,11.687605 102.734331,10.7507079 C102.56229,9.8138108 102.338761,8.70668173 102.065001,7.43553353 L102.013515,7.18204943 L101.293953,8.34012384 C100.092173,10.3158087 99.0122037,12.2765828 98.0502773,14.2187183 C97.0908625,16.1596112 96.2331657,18.0694399 95.477187,19.9457193 M89.8148814,40.1896552 L88.2702737,39.73736 C88.0994878,37.5280721 88.7160751,33.3741636 90.1238029,27.2806047 L90.4327244,25.9237193 L90.3812375,25.9237193 C87.2945337,25.9237193 84.4100103,25.4714241 81.7339462,24.5668338 L81.683715,23.159003 C83.0889312,23.3267498 84.5644711,23.4696453 86.1090788,23.5864468 C87.6536864,23.7044908 89.2673619,23.7778024 90.9488494,23.8125944 L91.6169236,21.4020103 C94.3268938,11.6229914 97.3307162,4.48691704 100.623368,0.00124256911 L105.976752,1.1543467 C105.735642,1.49108293 105.488254,1.86136852 105.229564,2.26271834 C104.973385,2.66406816 104.671998,3.09772478 104.32917,3.56865847 L103.608353,4.67330241 L103.65984,4.87211347 C104.208616,7.05033711 104.689579,8.88312654 105.100218,10.3729669 C105.512114,11.8640498 105.856197,13.0283371 106.129957,13.8658287 C106.609664,15.4041292 107.116999,16.838054 107.649449,18.1601475 C108.180643,19.482241 108.738209,20.6800776 109.32089,21.7524148 L109.423864,22.0034137 L109.579581,22.0034137 C111.019959,21.7014694 112.546985,21.324971 114.159405,20.8726758 C115.773081,20.4228658 117.470893,19.9109274 119.255355,19.3405881 L118.946433,24.0623507 C117.231039,24.6985461 114.964359,25.2042718 112.153927,25.5708296 L111.381623,25.6714777 L111.381623,25.7211805 C112.582147,28.0659084 115.308442,32.2359703 119.564276,38.2301237 L114.159405,39.4379009 C111.86133,36.3215375 109.85334,32.536672 108.137947,28.0845469 L107.365643,26.0740701 L106.7478,26.1250155 C105.925265,26.1908716 105.066312,26.2430595 104.173454,26.2753663 C103.280595,26.3089157 102.355086,26.3250691 101.394416,26.3250691 C99.9527819,26.3250691 98.7434671,26.3151285 97.7664714,26.3002177 C96.7894756,26.2840643 96.0435432,26.2579704 95.5274182,26.224421 L93.2117624,26.0740701 L92.6466621,27.8832507 C92.0978868,29.6576394 91.5830176,31.5761661 91.1033102,33.6363457 C90.6210912,35.6952827 90.1928707,37.8797192 89.8148814,40.1896552 M64.1404881,40.1896552 L62.5946247,40.0890071 C63.4523215,36.1053305 64.090257,32.4024746 64.498385,28.9878947 C64.9077689,25.5745573 65.1162281,22.4731049 65.1162281,19.6947203 C65.1162281,14.9394084 64.6365207,10.4176994 63.6745943,6.12835083 L63.2626989,4.17006192 L61.1517351,3.61836124 L61.203222,2.5621775 L62.9562889,2.81317646 L62.388677,0.754239447 L68.6688257,0.00248513821 C68.7027317,0.23608813 68.7479398,0.588977756 68.7981709,1.05742631 C68.8458905,1.52214716 68.9086794,2.09497151 68.9777473,2.76471626 L69.0279784,3.51895571 L71.5520934,3.61960381 C77.0071955,3.81841486 82.9947479,3.04926459 89.5134945,1.3071827 L88.8441645,6.07989064 C87.2995569,6.2463949 85.8491326,6.3830775 84.4954033,6.48248303 C83.1441855,6.57940342 81.8796165,6.63283389 80.7129982,6.63283389 C77.7631743,6.63283389 74.3487123,6.3308896 70.470868,5.72824358 L69.1836949,5.52694738 L69.1836949,6.2302415 C69.1836949,6.66141298 69.2113221,7.32991516 69.2615532,8.21586693 C69.3092728,9.10057613 69.3381557,9.76410804 69.3381557,10.1990072 C69.3381557,19.6760818 67.6051813,29.6737928 64.1404881,40.1896552 M43.1966128,35.9698905 L44.8441944,36.2718348 L44.948424,35.7698369 C46.2180161,29.8738465 46.8521843,24.5494378 46.8521843,19.7941259 C46.8521843,15.4401637 46.3875462,11.1346618 45.4620374,6.88259028 L44.8956813,4.26946745 L44.6395024,4.37011555 C43.1627068,4.70436664 41.6859112,4.94915275 40.2128829,5.09826104 C38.7385989,5.24612677 37.2618032,5.32440862 35.7862634,5.32440862 C34.8607546,5.32440862 33.967896,5.29955724 33.1101992,5.25109704 C32.2525024,5.20015171 31.4287117,5.10944416 30.6400827,4.9752467 L29.9720085,4.87211347 L29.8175478,5.67605568 C29.6455061,6.57940342 29.4282564,7.70392846 29.1720776,9.04217539 C28.9184103,10.3791797 28.6496737,11.9224506 28.3746582,13.6632899 C28.0657366,16.209314 27.9112759,18.6882394 27.9112759,21.100066 C27.9112759,24.2822855 28.40982,28.7033464 29.4031408,34.3632486 L29.7133181,36.0195933 L30.7932877,35.8207822 C32.5425873,35.5523873 34.4815094,35.4181898 36.6100541,35.4181898 C37.7754167,35.4181898 38.9018501,35.4703777 39.9805639,35.5697832 C41.0580219,35.6667036 42.1329684,35.8033862 43.1966128,35.9698905 M25.8003121,40.1896552 L26.1092336,36.6756697 C26.2473692,36.6396352 26.4545727,36.5961453 26.7270767,36.5476851 C26.9983248,36.5004675 27.3285946,36.4395816 27.7053282,36.3724829 L28.0657366,36.3215375 L27.7555593,35.4678926 C25.1837248,28.3343033 23.8965517,20.5980681 23.8965517,12.2567017 C23.8965517,11.1520577 23.9480386,9.82126622 24.0522683,8.26308456 C24.1539863,6.7049029 24.292122,4.90566283 24.4641636,2.86287922 L30.4341351,3.16482351 C36.3350386,3.46552524 42.3401718,2.41058407 48.4470231,0 L48.2410754,3.51647057 L47.6232324,3.668064 C47.5202585,3.7003708 47.3896575,3.7364053 47.2364526,3.7687121 C47.0845034,3.79853376 46.8848346,3.85196423 46.6449808,3.91906296 L46.4905201,3.97000829 L47.0041335,5.47600205 C49.1653285,11.8044065 50.2465538,18.4546364 50.2465538,25.4192362 C50.2465538,26.2579704 50.1686956,27.6558606 50.0142348,29.6141495 C49.8610298,31.5749236 49.6462917,34.1284031 49.3712762,37.2758306 L49.2683023,38.3804746 L49.2180712,38.3804746 L46.3360593,38.1816635 C45.1342792,38.1120796 44.0254267,38.0524363 43.0157807,38.0052187 C42.0036232,37.9580011 41.085649,37.929422 40.2606025,37.929422 C35.1508394,37.929422 30.3286497,38.6836614 25.8003121,40.1896552" id="ogava" fill="#BE8714" fill-rule="nonzero"></path>
                        <g id="left" fill="#D0021B">
                            <path d="M0.291755172,39.3684169 L0.291755172,39.2283292 C0.498568966,38.2051881 2.1099931,38.6967461 2.87077241,38.4841129 C6.10346897,38.5691661 9.43711034,38.4515925 12.6316448,38.7367712 C17.0387483,38.9744201 19.490969,40.3352727 12.8446138,40.1288934 C10.3973172,40.3177618 6.0369931,39.5860533 3.93438621,40.5203887 C2.47807241,40.5203887 0.744775862,41.068232 0.291755172,39.3684169" id="Shape"></path>
                            <path d="M1.52771379,34.025069 C4.81826897,32.5428903 9.43218621,33.9037429 13.0231138,33.4384514 C13.5992379,33.4384514 16.7986966,33.209558 16.9439586,33.9525235 C17.0941448,33.9525235 17.5890207,35.2670972 15.3448448,35.2670972 C14.8795138,34.6266959 5.7513931,34.9706614 4.92413793,35.2783542 C3.97747241,35.3008683 0.771858621,36.0838589 1.52771379,34.025069" id="Shape"></path>
                            <path d="M2.83630345,28.5103636 L2.86954138,28.5103636 C2.90770345,28.6254357 5.33653448,28.8155549 5.38085172,28.6829718 C7.97094828,28.9231223 10.6841483,28.542884 13.2680897,28.6654608 C13.7998966,28.5991693 16.2385759,28.5653981 16.2385759,28.6479498 C16.4687793,28.6016708 9.67962414,30.6892288 2.76367241,30.2914796 C2.29957241,29.9787837 2.7525931,29.2908527 2.51746552,29.3921661 C2.48792069,28.9581442 2.82153103,28.5266238 2.83630345,28.5103636" id="Shape"></path>
                            <path d="M4.97091724,23.6648276 C5.60982414,24.0313072 10.9365103,23.6498182 11.9262621,23.6273041 C12.9886448,23.6723323 13.6509414,23.7098558 14.707169,23.5422508 C15.3780828,23.0056646 17.0092034,24.1763981 16.3321345,25.0769624 C16.3173621,25.0469436 16.3259793,25.1457555 16.244731,25.2107962 C15.9997552,25.4034169 15.4100897,25.7511348 14.6997828,25.108232 C13.9894759,24.8955987 13.0280379,25.0144232 12.4002103,25.0744608 C8.61354828,25.0919718 5.37223448,25.4459436 2.19739655,23.5359969 C1.34921379,23.1057273 -0.278213793,21.7798966 1.6101931,21.7623856 C2.53346897,22.083837 3.79281724,23.3646395 4.97091724,23.6648276" id="Shape"></path>
                            <path d="M5.94589655,19.1757649 C4.80472759,18.8180408 4.91182759,17.8999655 6.3546,17.6548119 C7.12522759,17.3696332 7.23478966,17.3196019 8.4966,16.804279 C9.58729655,16.1063417 10.5598138,15.7248527 11.8253172,14.7567461 C14.5065103,13.1920157 11.1433241,16.5353605 10.6890724,17.1620031 C10.4539448,17.313348 10.4305552,17.5922727 9.4641931,18.1451191 C8.211,18.7329875 7.23848276,19.1082226 5.94589655,19.1757649" id="Shape"></path>
                            <path d="M4.96476207,11.23579 C4.96106897,11.2432947 9.05795172,10.9656207 10.0624759,11.1582414 C11.9139517,11.4046458 13.6201655,11.1194671 15.4716414,11.1194671 C15.7461621,11.0118997 16.8910241,10.9343511 17.1003,11.079442 C18.1836103,11.310837 17.9263241,13.3821348 16.6411241,13.3821348 C12.9837207,12.1701254 11.8437828,12.7654984 9.49373793,12.6141536 C7.75921034,12.7479875 0.858031034,13.4634357 0.782937931,11.5647461 C0.478872414,11.0018934 1.70744483,7.61727273 2.24786897,7.37336991 C4.06118276,7.37336991 0.246206897,11.6910752 4.96476207,11.23579" id="Shape"></path>
                            <path d="M3.72018621,4.6729279 C3.73126552,4.66167085 3.74234483,4.65041379 3.75342414,4.63915674 C4.48588966,4.66917555 4.87120345,4.80050784 5.42024483,5.31082759 C5.73785172,5.48968966 5.92496897,5.78237304 6.18225517,5.99125392 C8.5643069,7.91621003 15.7633966,10.2113981 11.9804276,9.52596865 C10.4354793,8.85805016 3.4592069,6.93059248 3.72018621,4.6729279" id="Shape"></path>
                            <path d="M5.48795172,0.00875548589 C7.70873793,-0.0350219436 10.0181586,0.0888056426 12.2451,0.132583072 C15.959131,0.0200125392 20.3046828,1.53095925 14.3317034,1.53095925 C11.3722966,1.27329781 8.39565517,1.59850157 5.43747931,1.52220376 C-1.1817931,1.25953918 0.311451724,0.200125392 5.48795172,0.00875548589" id="Shape"></path>
                        </g>
                    </g>
                </g>
            </g>
        </g>
    </g>
</svg>